<?xml version="1.0" encoding="utf-8"?>
<!-- Generator: Adobe Illustrator 18.0.0, SVG Export Plug-In . SVG Version: 6.00 Build 0)  -->
<!DOCTYPE svg PUBLIC "-//W3C//DTD SVG 1.1//EN" "http://www.w3.org/Graphics/SVG/1.1/DTD/svg11.dtd">
<svg version="1.1" id="Layer_1" xmlns="http://www.w3.org/2000/svg" xmlns:xlink="http://www.w3.org/1999/xlink" x="0px" y="0px"
	 viewBox="0 0 1400 980" enable-background="new 0 0 1400 980" xml:space="preserve">
<g>
	<rect fill="#FFFFFF" width="1400" height="980"/>
	<g>
		<g>
			<path d="M818,454.1c-0.1-0.2-0.3-0.5-0.5-0.7c0-0.1-0.1-0.2-0.2-0.3c-2.4-2.6-4.3-5.6-6.3-8.5c0.6-0.6,0.2-1.3-0.4-1.6
				c0-0.1-0.1-0.2-0.1-0.3c-5.2-8.1-10.8-16-16.6-23.8c-2.5-3.3-5-6.6-7.6-9.8c-1.5-1.9-3-3.8-4.5-5.7c-0.3-0.4-2.8-3.4-4.4-5.5
				c2.6-0.7,5-2.3,4.8-4.4c0.4-0.3,0.7-0.6,0.7-1c0-1.3-1.2-2.4-1.9-3.4c-0.7-0.9-1.3-1.8-2.1-2.7c1.2-0.5,3.2-0.7,2.6-2.6
				c-0.7-2.4-3.8-4.6-5.5-6.4c-1.2-1.3-2.4-2.6-3.4-4c-0.7-1-1.1-1.6-2.3-1.9c-1.1-0.3-2,1-2.5,2.1c-0.4-0.6-0.9-1.2-1.5-1.4
				c-0.8-0.2-1.5,0.5-2.1,0.8c-0.8,0.5-1.6,1-2.4,1.6c-1.4-1.8-2.7-3.7-4.3-5.3c-0.9-1-1.9-1-2.8-0.7c-2.9-3.4-5.8-6.7-8.6-10.1
				c-1.6-1.9-2.7-4.5-4.4-6.2c-0.9-0.9-2.5-1.2-3.9-1.5c0-0.2-0.1-0.3-0.2-0.5c-3.6-4.8-7.8-9.2-11.7-13.8c-3-3.6-6-7.2-9.1-10.6
				c1-0.2,2-0.4,3-0.4c1.4,0,2.7,0.5,4.2,0.4c1.3-0.1,2.7-1,3.1-2.3c0.3-1,0.4-1.9,0.5-3c0.2-1.9,0.7-1.9,1.8-3
				c0.5-0.5,0.4-1.3,0.1-2.1c0.3-0.1,0.5-0.1,0.8-0.2c0.3-0.1,0.6-0.3,0.6-0.6c0.1-0.6,0.1-1.1,0.2-1.7c2-0.1,3.8-0.1,4-2.7
				c0.1-1.2-1-2.7-1.4-3.7c-0.5-1.1-0.9-2.1-1.3-3.2c2.9-0.6,5.7-1.4,8.5-2.6c0.7-0.3,1.1-1.2,0.5-1.8c-3.3-3.1-3-7.9-3.5-12
				c-0.5-3.9-2.1-7.6-4.2-10.9c-3.8-5.9-10.4-9.3-17.3-9.1c-7,0.1-14.3,3.9-19.3,8.7c-5.3,5.1-8.2,14.1-9.7,21.1
				c0,0.2,0,0.4,0.2,0.6c1.7,2.3,4.2,3.7,6.8,4.6c-0.1,0.1-0.2,0.3-0.2,0.5c0,0.9-0.2,1.7-0.4,2.5c-0.1,0.2-0.1,0.4-0.2,0.6
				c-1.6-0.9-3.2-1.9-4.6-3.2c-0.3-0.3-0.8-0.4-1.2-0.2c-2.5,1.9-4.7,4.1-6.3,6.8c-0.2,0.4-0.1,0.9,0.1,1.2c0.3,0.3,0.7,0.7,1,1.1
				c-0.6,1-1.3,1.9-2,2.8c-0.3,0.3-0.6,0.6-1,1c-3.4,0.6-6.9,2.4-8.8,5.1c-4.4,1.8-8.2,5.2-10.6,9.3c-2.3,3.8-3.3,8.4-4.7,12.5
				c-1.2,3.4-2.4,6.6-1.8,10c-0.7,1.5-1.2,3.2-1.5,4.9c-0.3,1.7-0.1,3.1,0.2,4.6c-0.5,0.7-0.7,1.6-0.8,2.6c-0.4,4-0.1,8.2-0.1,12.3
				c0,3.9-1,10.9,3.2,12.7c-0.2,4.7-1.1,9.3-1.3,14c-0.1,3.6,2,6.6,4.8,8.6c-1,2.6-2.2,4.9-3.8,7.3c-1,1.5-1.7,3.2-1.9,5
				c-1.1-1-2.4-1.4-3.6-0.3c-1.2,1-0.5,3.1-0.1,4.3c0.2,0.6,0.5,1.3,0.8,1.9c-2.6,3.3-2.7,7.9-0.8,11.5c-2.2,6.4-1.2,14,3.6,18.5
				c0.3,4.9,1,9.9,2,14.7c0.4,1.7,1.6,2.8,3.1,3.3c-0.2,0.6-0.2,1.2-0.1,1.8c0.3,1.6,0.8,2.9,0.6,4.4c-0.9-0.7-1.8-1.4-2.7-2
				c-0.7-0.5-1.7-0.7-2.6-1c2.3-4.6-1.7-10.7-7.4-9.4c-4,0.9-6.6,3.5-8.9,6.8c-3.5,5-6.7,9.7-11,14c-4,4-17.1,12.7-9,19.1
				c2.8,2.2,7.9,1.9,11.3,1.6c3.3-0.4,6.8-1.5,9.7-3.3c4.1,0,8.2,1.1,11.4,3.7c1.3,1.1,2.8,1.4,4.4,1.4c2.5,0.4,4.4,1.9,7,2.2
				c2.4,0.2,4,0.2,6.3,1.2c1.1,0.5,2.1,1.1,3.2,1.6c4.4,1.8,11.5,2.1,15.8-0.1c4.7-2.4,6-7.1,7.2-12c0.7-2.9,2.9-8,1-10.8
				c0.1-0.2,0.2-0.3,0.2-0.6c1.1-8.3,2.3-17.1,1.6-25.5c1.8-1.4,2.1-4.1,2.2-6.3c0-1.1,0.4-3.1-0.6-4c-0.3-0.3-0.6-0.4-1-0.4
				c4.3-4.4,8.6-9,12.4-13.8c5.1,0.1,10.3-0.2,15.4-0.5c0,0.1,0.1,0.2,0.1,0.4c0.8,1.8,3.6,1.8,5.2,1.7c1.4-0.1,2.8-0.3,4.2-0.5
				c0.8-0.1,1.9,0,2.6-0.4c0.9-0.5,1.3-1.4,1.5-2.3c7.4,1.4,15.4,0.6,22.8-0.7c-0.2,2.6-0.5,5.2-1.6,7.7c-0.9,2.1-1.7,4.1-2,6.4
				c-0.9,5.4,0.4,11.2,0.5,16.7c0.2,6.3-0.7,12.4-1.6,18.6c-0.6,4.4-0.3,8.7,2.2,12.5c0.1,2.8-0.5,5.3-1.9,7.9
				c-1.1,2-2.7,4.1-2.7,6.5c0,3.9,2.6,6.4,6.6,6.6c3.1,0.2,6.1-0.2,9.2,0.4c2.8,0.5,5.5,1.4,8.3,1.7c6.3,0.7,13.1,0.3,19.3-0.2
				c3.6-0.3,9.6-0.7,12.3-3.4c2-2,0.1-5.4-2.3-5.9c-5.1-1.2-9.4-1.4-14-4.3c-3.9-2.5-6.8-6.2-8.9-10.3c1.2-0.2,2.5-0.4,3.7-0.6
				c0.5-0.1,0.9-0.7,0.9-1.1c0-8.6-0.1-17.3-0.3-25.9c-0.2-8.1,0.4-16.9-1.3-24.8c2.2-3.6,3.4-7.7,4.1-11.9c2.8,2.9,5.8,5.6,8.7,8.3
				c2.7,2.4,5.4,1.1,7.8-0.9c2,3,4.1,5.9,6.3,8.8c0.1,0.2,0.2,0.4,0.4,0.5c1.2,0.6,2.6-0.3,3.3-1.2
				C817.8,455.5,818.2,454.6,818,454.1z M752.5,387c1.8,3,4.4,5.5,6.6,8.2c-1.2,0.1-2.4,0.2-3.7,0.4c-1.7,0.2-3.4,0.7-4.8,1.6
				c-0.9-0.5-1.8-0.9-2.7-1.5c-0.5-0.3-0.9-0.6-1.4-1c0.6-1.2,1.4-2.4,2.4-3.7C750.2,389.7,751.3,388.3,752.5,387z M729.1,380.8
				c0-0.2,0-0.3,0-0.5c0-0.6,0.1-1.3,0.1-1.9c2.8,0,5.9-0.3,8.3-1.8c0.3,0.4,0.6,0.9,1,1.3c0.5,0.6,1,1.4,1.5,2
				c-0.3,0.4-0.7,0.7-0.9,1c-1.2,1.6-2.3,3.4-3,5.3C734,384.2,731.7,382.2,729.1,380.8z"/>
		</g>
		<path d="M443.5,155.5c-1-0.5-2.3-0.8-3.3-1.3c-0.9-0.4-1.7-0.9-2.6-1.2c-0.4-0.2-0.9-0.2-1.3-0.2c-0.1-0.1-0.2-0.1-0.4-0.1
			c-0.7,0.3-1.4,0.8-1.9,1.3c0,0,0,0,0,0c-5.5-2.1-11.2-4.6-16.9-6c-0.2-0.6-0.6-1-1.2-1.3c-0.1-0.1-0.2-0.1-0.3-0.2
			c-2.8-0.6-5.3-1.8-7.9-2.8c1.1-2.8,2.1-5.6,3.2-8.4c0.7-1.8,1.4-3.8-0.8-4.7c-1.7-0.7-3.7,0.8-5,1.6c-2.4,1.5-4.8,2.9-7.1,4.5
			c0.2-1.3-1.2-1.8-2.4-2.3c-2.9-1.2-5.9-2.3-9-3c0.3-1,0.5-2.1,0.1-3c-0.4-0.8-1.1-1-1.9-0.9c0.4-2,0-3.7-2.1-4.7
			c-4.1-1.9-8.6-2.2-12.6-4.4c-2.2-1.2-3.9-2.3-5.4,0.4c-0.6,1.1-1.6,3.2-0.5,4.2c-0.2,0.4-0.5,0.7-0.7,1.1c-0.1,0-0.1,0-0.2-0.1
			c-0.8-0.3-1.6-0.6-2.4-0.8c-0.1-0.3-0.4-0.6-0.6-0.8c-0.3-0.3-0.7-0.5-1.1-0.7c0-0.8-0.3-1.7-0.8-2.2c-0.3-0.4-0.8-0.6-1.3-0.7
			c0.1-0.4,0.1-0.8-0.1-1.2c-0.1-0.3-0.3-0.5-0.5-0.7c-0.2-0.2-0.3-0.4-0.4-0.6c1.7-0.1,3.1-1.5,4.3-2.6c0.9-0.8,4.3-3.7,3.6-5.3
			c-0.9-2-4.2-1.8-6.1-2.2c-3.4-0.8-6.7-1.4-9.9-2.6c0.2-0.6,0.4-1.1-0.2-1.7c-0.9-0.9-2.9-0.8-4-1.1c-1.4-0.4-3-1.3-4.5-1.2
			c-0.7,0.1-0.9,0.7-0.9,1.3c-1.3-0.5-2.6-1.1-4-1.5c-0.9-0.3-1.9-0.5-2.7-0.1c-0.9,0.3-1.8,1.5-2.3,2.2c-0.5,0.7-1.3,2.7-0.5,3.6
			c0,0.1,0.1,0.1,0.1,0.2c1.7,1.2,3.6,2.3,5.6,3.3c-0.1,0.3-0.1,0.6,0,0.9c0.2,1.2,1.8,1.6,2.7,2c0.7,0.3,1.5,0.1,1.7-0.7
			c0-0.1,0.1-0.2,0.1-0.3c0.7,0.3,1.4,0.5,2.1,0.7c0,0.1-0.1,0.2-0.1,0.3c0,0.1-0.1,0.2-0.1,0.4c-0.6,0.3-1.2,0.7-1.6,1.4
			c-0.2,0.3-0.3,0.6-0.3,1c-2.2-0.7-4.3-1.6-6.5-2.3c0.4-1.1,0.3-2.3-0.5-3.2c-1.7-1.7-4.4,0.1-6.5-0.4c-1.4-0.3-3.4-2.6-5-1.6
			c-1.3,0.8-1.9,2.1-2.5,3.4c0,0-0.1,0-0.1-0.1c-3-1-5.8-1.4-8.7-2.7c-1.1-0.5-2.1-0.9-3.2-1.4c0.1-0.1,0.1-0.2,0.2-0.3
			c0.3-0.5,1.3-0.9,1.7-1.3c0.8-0.6,0.9-1.7,0.6-2.6c-0.3-0.9-1.1-1.4-2-1.7c0.2-0.4,0.4-0.8,0.7-1.2c0.8-0.1,1.7-0.1,2.4-0.5
			c1.4-0.8,1.9-2.4,1.9-4c2,0.4,4.2,1.3,4.6-1.6c0.3-1.8-0.3-3.9-0.5-5.6c-0.2-1.3-0.4-2.7-0.7-4c0.2-0.1,0.4-0.2,0.6-0.3
			c0.5-0.3,1.2-0.6,1.5-1.2c0.1-0.2,0.2-0.5,0.3-0.8c2.7,0.2,5.9,0,6.3-2c0.5-2-0.6-3.6-1.2-5.4c-0.9-2.7-0.9-5.6-1.3-8.4
			c-1.3-9.4-8.6-17.9-17-22.2c-4.4-2.2-9.8-2-14.5-1.7c-4.9,0.3-9.7,1.3-13.7,4.2c-8,5.7-12.9,15-14.6,24.6
			c-0.9,1.5-2.1,2.8-1.9,4.4c0.1,1.2,1.7,2.4,2.5,3.1c1.5,1.4,3.1,2.6,4.6,4c0,0.4-0.1,0.9-0.1,1.3c-0.1,0.8-0.4,1.6-0.5,2.4
			c-0.6,0.3-1.1,0.6-1.6,1c-0.8,0.5-2.3,2.2-3.3,1.9c-1.5-0.3-2.6-0.8-3.9-0.4c-1.6-1-3.2-2-4.9-2.8c-2.3-1-4.8-0.7-7.1-0.2
			c-5.5,1.1-10.8,3.7-15.5,6.7c-4.4,2.8-8.5,6.5-11.5,10.8c-2.8,3.8-3.5,8.1-3.4,12.5c-3.6,2.5-6.1,7.2-8.6,10.6
			c-4.2,5.6-8.3,11.3-12.4,16.9c-3.4,4.7-7.5,9.7-8.8,15.5c-0.5,2.4,0.2,4.8,0.9,7c0.6,1.7,1.1,3.4,1.5,5.1
			c-3.7,5.6-8.4,10.4-12.5,15.8c-1.2,1.6-2.4,3.3-3.5,5.1c-0.5,0.9-1.5,2.4-1.2,3.6c1,3.5,6.7,3.4,9,5.8c-1.8,4.8-3,10-3.7,14.9
			c-0.3,2.1-0.8,7.7,1.9,8.2c-0.2,4.5,0,9,1.5,13.1c1,2.9,2.8,5.6,5,7.8c-1.7,7.1-4.5,13.8-6.9,20.7c-1.3,3.9-2.3,7.8-2.9,11.9
			c-0.3,1.8-0.4,3.6-0.5,5.4c-0.1,2.7,0.3,5.3-0.8,7.8c-1.4,3.4-0.4,9.2-4.6,10.9c-1.3,0.5-2.7,0.5-4,1.2c-1.3,0.7-2.1,2.1-2.8,3.3
			c-0.9,1.6-1.4,3.4-2.2,5.1c-0.8,1.5-2.1,2.7-3.1,4.1c-1,1.3-1.3,2.9-1,4.3c-6.1,7.2-13.3,13.1-20.7,19.1
			c-5.2,4.2-18.3,12.9-13.4,21c-1.7,2.8-3.5,5.5-5.9,7.8c-2.4,2.4-5.2,4.5-7.9,6.6c-4.7,3.7-9.1,7.7-11.5,13.3
			c-1.4,0.6-2.1,2.1-2.7,3.7c-0.1,0.2,0,0.5,0.2,0.6c4,3.2,8.8,6.3,12,10.3c0.2,0.2,0.6,0.2,0.8,0.1c0.5-0.3,1.1-0.7,1.6-1
			c2.9,2.5,5.9,5.1,9.1,7.1c3.4,3,7.5,5.2,12.5,6.2c2.8,0.5,23.8,1.7,22.7-4.1c1-2.3-0.3-4.8-2.4-6.3c-4.4-3-10.1-0.1-14.4-3.7
			c-2.4-2-4.7-5.5-4.1-8.7c0.6-2.6,2-5.1,3.3-7.4c2-3.5,4.5-6.6,7.4-9.4c3.8,2.9,9.1,0.2,12.1-3.1c2.7-2.9,5-6.1,7.7-9
			c3.2-3.3,6.9-6.2,10.8-8.7c3.5-2.2,7.3-3.8,11-5.7c3.3-1.7,6.2-4.2,8.8-6.9c0.1-0.1,0.3-0.3,0.4-0.5c4.7-1.7,8.9-5,12-8.9
			c4.6-5.9,6.2-14.1,9-21c6.1-14.9,14.2-28.7,21.6-42.9c4.9,2,10,3.5,15.2,4.3c-0.6,1.3-1.1,2.7-2.3,3.7c-2.3,2.1-2.3,5.8-3.5,8.5
			c-1.5,3.6-4.3,6.2-7.3,8.7c-2.3,2-4.3,3.9-5.5,6.8c-1.5,3.6-1.3,7.6-2.9,11.1c-1.5,3.2-4.9,8.2-2.3,11.4c-0.4,0.9-0.8,1.7-1,2.6
			c-1.8,0.5-3.2,4.3-3.8,5.6c-2,3.7-3.5,7.6-5.3,11.4c-1.9,4-4.2,7.7-7.2,11c-2.4,2.6-4.8,5.2-6,8.5c-2.2,0.8-3.9,6.3-4.4,7.6
			c-0.1,0.3,0.1,0.6,0.4,0.7c1.1,3.6,6.8,5.9,9.7,7.6c2.3,1.4,4.8,2.9,7.4,3.7c0.9,0.3,1.6-0.4,2.1-1.1c3.4,2.7,6.9,5.3,10.8,7.2
			c4.4,2.2,9.4,3.2,14.3,3.7c5.6,0.6,11.3,0.1,16.9-0.5c1.9-0.2,4.3-0.1,6-1.1c1.3-0.7,0.5-3.1,0.9-4.1c0.1-0.4-0.1-0.7-0.5-0.8
			c-0.3-0.1-0.5-0.2-0.8-0.3c0.3-3.7,0.1-7.6-3-10.1c-1.5-1.2-3.6-1.6-5.5-2c-3.3-0.7-5.8-1.7-8.2-4.2c-1.9-2-3.3-4.5-4.6-6.9
			c-2.3-4-0.7-8.1,0.8-12c1.5-4.2,5.6-9.3,5-14.1c0.1,0,0.1,0,0.2,0c2.1-0.3,3.6-1.5,5.1-2.9c3.6-3.2,6.4-7,9.5-10.7
			c1.5-1.8,3.9-2.5,6-3.4c1.8-0.8,3.3-2.1,4.6-3.6c2.6-3,4-7,5.4-10.6c1.9-5.1,4.1-10.1,6.4-15.1c2.2-4.6,4.9-9.1,6.8-13.8
			c3.1-7.5,1-16.4-4-22.6c-0.3-1.4-0.8-2.8-1.4-4.1c-0.9-1.9-2.4-3.5-4.1-4.7c-0.1-1.2-0.9-2.1-1.8-3.1c-2-2.2-4.2-4.2-6.3-6.3
			c-3-3-6.4-5.7-9.8-8.2c1.4-2.7-1.2-5.9-4-8.6c-0.2-2.2-0.5-4.4-0.9-6.5c1.9,0,3.8-0.8,5.5-1.8c2.1,0.2,4,0.9,5.8,2.1
			c1.5,1,2.6,0.4,4.5,0c3.9-0.7,6.8-1,8.3-4.9c3.4-8.7,6.5-17.5,10.2-26.1c2.4,2.3,4.3,4.9,5.2,8.3c0.7,2.9,2.3,4.4,4.6,5.2
			c1.6,2.6,3.9,4.5,7.4,4.3c3.3-0.2,6.8-2.1,9.9-3.2c2.4-0.9,5.1-1.4,6.6-3.6c0.6-1,0.7-2.3,1.1-3.4c0.6-2,2.1-3.9,3.2-5.6
			c2-3.1,4.2-6.1,5.9-9.4c1.7-3.1,2-6.8,3.9-9.8c1.3-2,3-4.4,2.3-6.8c0.8,0,1.5,0.1,2.3-0.1c0.9-0.2,2.1-0.7,2.9-1.3
			c0.9-0.8,1.3-2.1,1.4-3.4c1-0.3,1.9-0.8,2.1-1.6c0.2-0.8,0-1.5-0.2-2.3c-0.1-0.2-0.1-0.5-0.2-0.7c2.7-0.3,2.5-3.8,1.9-6.4
			c1.4-1.1,1.8-2.5,1.8-4.1c0.2,0,0.3,0,0.5,0c0.1,1.3,1,2.1,2.8,2.8c4.8,2,9.6,3.9,14.4,5.9c3,1.2,16.1,8.5,18.9,3.6
			c0.8,0,1.7-0.1,2.4-0.4c0.6-0.3,0.9-1,1.1-1.7c3.2,1.2,6.4,2.5,9.6,3.9c1.9,0.8,4.2,2.2,6.4,2.1c2.7,0.9,5.4,2,8.1,3.1
			c3,1.2,6.1,1.9,9.3,2.5c-0.2,0.8-0.3,1.7-0.3,2.5c0,0.3,0.2,0.5,0.5,0.6c2.9,1.2,5.9,2.4,8.8,3.6c0.4,0.2,0.7-0.1,0.8-0.4
			c1.3-1.4,2-2.9,2.4-4.8C444.5,158.2,444.8,156.1,443.5,155.5z M323.5,150.4c-0.8,1.9-1.3,3.1-3,4.3c-0.1,0.1-0.2,0.2-0.3,0.3
			c-0.5-4.3-1.1-8.6-1.2-12.9c1.4,0.5,2.8,1.3,4.1,0.7c0.8-0.3,1.2-1.1,1.5-2c1.5,0.6,4.2,1.2,4.7-0.8c0.2-0.6,0.2-1.2,0.2-1.8
			c1.4,0.7,2.9,1.4,4.4,1.6c-0.4,0.8-0.7,1.5-1,2.3c-1.1,0-2.5,0-3.3,0.8c-1.9,1.7-2.9,4.2-4.8,6.1
			C324.3,149.3,323.8,149.9,323.5,150.4z M334.1,132.8c0.6,0.2,1.1,0.5,1.6,0.8c-0.3,0.9-0.7,1.8-1.3,2.6c-0.7,0.9-2.7,0.1-3.5-0.1
			c-0.6-0.1-1.1-0.2-1.7-0.3c-0.3-1.3-1.1-2.9-1.3-4.4C329.9,131.1,332.5,132.2,334.1,132.8z M304.9,115.2c3.1,0.6,6.1,1.1,9.1,2
			c-0.6,1.4-1.2,2.9-1.7,4.4C309.7,119.6,306.9,117.7,304.9,115.2z"/>
		<g>
			<path d="M859.1,645.3c0-0.4,0-0.7-0.2-1c0.1-0.3-0.1-0.7-0.5-0.7c-3.6,0-7.1,0-10.7,0c-2.7,0-5.6-0.1-8.3,0.1
				c-0.2-0.3-0.5-0.6-1-0.7c-1.6-0.4-3.2-0.4-4.8-0.2c-0.2,0-0.4,0.1-0.4,0.3c0,0,0,0,0,0c-2.1,0.1-4.3,0.1-6.4,0.1
				c-0.8,0-1.5-0.1-2.3-0.4c0,0-0.2-0.6-0.3-0.7c-0.2-0.2-0.4-0.4-0.7-0.4c0.1-2.6,0.1-5.2,0.1-7.8c0-1.1,0.3-3.1-0.9-3.8
				c-1-0.6-1.7-0.5-2.7,0.3c-1.5,1.2-2.9,2.8-4.1,4.4c-0.9,0-1.9,0-2.8,0.1c-1.6-2.5-4.5-2.5-7.2-2.5c-2.1,0-4.3,0-6.4,0
				c-2,0-4.2-1.7-6.2-2c-2.4-0.3-2.6,0.9-2.6,3c0,0.6-0.1,2.1,0.5,2.5c0.5,0.3,1.1,0.3,1.7,0.2c0.9,0.1,1.9,0.1,2.7,0.1
				c0,0.1,0,0.3,0,0.4c-5.1,0.9-9.8,0.3-15-0.3c-1.1-0.1-3.8-0.3-4.3,0.9c-1.2,0-2.5,0-3.8,0.1c-2.4-1.3-4.7-2.5-7.1-3.8
				c-1.4-0.7-2.4-0.9-3.7-0.9c0-0.3-0.1-0.7-0.1-1c2.3,0.2,4.5,0.4,6.8,0.6c1.6,0.1,1.9-0.2,2.1-1.8c0.1-1.3,0.1-2.6,0.1-3.9
				c0-0.6,0.2-2-0.3-2.4c-0.5-0.5-1.3-0.5-2-0.5c-1.3,0-2.5-0.1-3.8,0c0.4-0.5,0.7-1,1.1-1.5c0.2-0.3-0.1-0.8-0.4-0.8
				c-5.5-0.4-11.5-0.3-17,1.2c0-0.5-0.1-0.9-0.1-1.4c0-0.3-0.2-0.5-0.5-0.5c-1.4,0-2.7,0.1-4.1,0.2c-0.2,0-0.5,0.2-0.5,0.5
				c0,0.6,0,1.2,0.1,1.9c-3.3,0-6.7-0.2-9.9,0.3c1.8-1.4,3.7-2.8,5.5-4.2c1.3-1,2-1.6,1.5-3.2c-0.9-2.8-1.4-5.6-1.6-8.5
				c-0.1-2.3-0.4-4.5-1.2-6.7c-1.4-3.6-5.2-6.1-8.3-8.2c-3.9-2.6-8.4-4.3-12.9-5.4c-8.2-2-18.3-1.8-25.6,2.8
				c-6.5,4.1-7.4,12.1-10.8,18.5c-0.1,0.2-0.3,0.4-0.4,0.6c-0.6,0.9-2,2.3-2,3.5c0,2.7,2.4,5.7,4.5,7.6c-1.1,0.8-2.3,1.6-3.3,2.4
				c-0.9-0.8-1.8-1.5-2.7-2.3c0.8-1.4-1-3.1-2.4-2.1c-1.2-0.8-2.4,0.2-3.5,1.1c-1.1,0.9-2.7,2.1-2.1,3.4c-0.1,0.2-0.2,0.3-0.3,0.5
				c-0.1,0.3-0.1,0.5,0,0.8c0.1,0.3,0.4,0.5,0.4,0.8c0,0.2,0.2,0.4,0.3,0.4c0.4,0.2,0.8,0,1.2-0.1c0.1-0.1,0.2-0.1,0.4-0.2
				c0,0.1,0.1,0.2,0.1,0.3c-2.4,0.4-5.1,0.1-7.5,0.4c-5.9-0.3-12.2,1.8-17,5.2c-4.9-3.2-11.9-1.4-16.1,2.3c-2.5,2.2-3.1,5.1-3.2,8.3
				c0,1.5,0.7,2.7,1.8,3.7c-1.7,0.8-3.4,1.4-4.9,2.5c-0.9,0.7-1.8,1.5-2.5,2.5c-3.4,0.1-4.5-4.1-7.8-4.6c-2-0.3-3.4,1.6-4.1,3.2
				c-1,2.5-0.1,6.5,0.9,8.8c0.8,1.7,1.8,3.2,3.3,4.3c-1.6,2.3-3.1,4.5-4.8,6.7c-1.1,1.4-1.9,2.9-1.4,4.6c-2,1.7-3.5,3.8-5.1,5.8
				c-1.1,1.4-2.2,2.8-3.4,4c-0.5,0.5-2.3,2.4-3.1,1.5c-0.2-0.2-0.6-0.4-0.9-0.4c-2.3,0.1-3.2,2.8-3.6,4.7c-0.3,1.8,0.9,3.5,2.2,4.8
				c-0.3,0.5-0.6,1.1-0.9,1.6c-0.8,0.6-1.7,1.2-2.4,2c-0.4-0.8-1.1-2.4-1.8-2.6c-1.3-0.3-2.6,0.8-3.7,1.4c-1.4,0.8-2.9,1.7-4.1,2.8
				c-0.8,0.7-1,1.6-1,2.6c-0.7,0.5-1.4,1-2,1.6c-1.2,1.2-1.4,3.5-1.8,5c-0.4,1.4-1.2,3.2-0.8,4.7c0.1,0.5,0.6,0.8,0.9,1.1
				c0.5,0.4,0.9,0.9,1.3,1.4c0.2,3.7,0.2,7.5,0,11.2c-0.1,1.3-0.8,3.4-0.1,4.6c0.4,0.7,1.2,1.3,2,1.8c-0.8,7-0.2,14.1,0.6,21.1
				c0.3,2.3,0,6.2,2.5,7.3c0.8,0.4,1.8-0.1,2.5-0.4c1.1-0.5,2.3-1,3.4-1.5c1.9,0.1,3.7,0,5.6-0.1c1.5-0.1,3-0.1,4.4,0
				c4.7,6.9,10.4,13.3,16.7,18.8c0.9,1.7,1.9,3.5,2.9,5.2c0.5,0.9,1.5,1,2.6,0.9c2,3.6,4.5,6.9,7.1,10.1c0.3,1,0.6,2.1,1,3.1
				c0.8,2,2.6,3.5,4.5,4.5c1.5,7.1,2.1,14.9,7.1,20c-1,2.2-1.9,4.5-2.6,6.7c-0.9,0.7-1.9,1.3-2.8,2c-1.5,1.1-2.7,2-3.6,3.7
				c-1,1.8-1.5,4.1-2.1,6c-0.4,1.3-0.9,2.7-1.3,4.1c-0.7,0.2-1.5,0.4-2.2,0.7c-1,0.3-2.1,0.5-3,1c-0.4,0.2-0.8,0.5-0.9,1
				c-0.1,0.9-0.1,1.7-0.3,2.6c-0.8,0.3-1.5,0.6-2.4,0.8c-1.1,0.3-2.6,0.1-3.5,0.9c-1,0.9-1.5,2.4-1.7,3.9c-0.8,0.5-1.5,1.2-2.1,1.7
				c-1.7,1.3-3.3,2.9-4.7,4.6c-1.2,1.5-2.4,3.1-3.1,4.9c-0.1,0.3,0,0.7,0.1,1.2c-0.9,0.5-1.8,1.3-2.2,2.2c-0.3,0.6-0.3,1.4,0.1,1.9
				c-3.7,2.3-6,5.3-7.9,9.4c-1.3,2.9-2.7,5.8-4,8.7c-0.9,2-1.9,4.1-2.5,6.2c-0.1,0-0.1,0-0.1,0.1c-0.1,0.3-0.1,0.6-0.1,0.8
				c0,0.1-0.1,0.3-0.1,0.4c0,0.2,0,0.4,0.1,0.5c0.7,4,6.7,6.1,9.9,7.5c2.6,1.2,5.2,2.7,8.2,2.3c0.7-0.1,1.1-0.5,1.5-1
				c0.3-0.4,0.5-0.8,0.7-1.2c2.1,2.3,3.9,5,6.4,6.8c4,2.9,9.7,3.4,14.6,4c4.9,0.5,9.9,0,14.3-2.3c1.4-0.7,6-3.9,4.5-5.8
				c0.4-4.4-3.9-7.2-7.9-8c-3.2-0.6-8.7,0.7-10.7-2.2c-0.9-1.3-1.7-2.6-2.6-3.9c-0.3-0.5-1.6-1.9-2.3-3.2c0.2-1.2,0.6-2.2,1.1-3.3
				c1.9,0.1,3.7,0.2,5.6-0.2c2.8-0.7,5.5-2.6,8-3.8c2.4-1.1,4.8-2.4,6.4-4.6c0.8-1.1,1.5-2.2,2.1-3.4c3.1-2.4,5.7-5.4,8.3-8.3
				c4.1-4.6,8-9.4,11.8-14.3c0.1,0.6,0.3,1.2,0.5,1.8c0.9,2.7,2.2,5.3,3.3,7.9c1.4,3.1,2.4,6.1,2.9,9.4c0.3,1.5,0.9,3,1.8,4.4
				c0.9,3.4,3,6.2,2.8,9.9c-0.2,2.9-1,5.6,0.4,8.4c0.7,1.3,2,2.2,3.5,2.3c0.2,0.2,0.3,0.4,0.5,0.7c1.9,2.6-0.1,4.8,0.1,7.5
				c0.1,0.8,0.4,1.7,0.6,2.5c0.5,1.8,0.4,3.4,0.2,5.2c-0.3,2.7-0.2,5.1,0.5,7.6c-0.1,0.1-0.2,0.2,0,0.3c0.1,0,0.1,0.1,0.2,0.1
				c0.1,0.2,0.3,0.3,0.5,0.3c3.9,2.3,9.5,1.8,13.8,2c1.5,0.1,4.8,0.7,6-0.5c0.8-0.8,1.2-2.2,1.3-3.6c0.6,0.1,1.1,0.1,1.3,0.2
				c1.6,0.1,3.3,0.2,4.9,0.3c3,0.2,5.9,0.2,8.9,0.2c5.2-0.1,10.3-1.1,15.2-2.8c3.6-1.2,8.9-2.9,11-6.3c0.7-1.1,0.6-4.6-1-4.9
				c-1.4-6.9-10.3-4.6-15.5-5.7c-4.4-0.9-8.7-2.7-12.8-4.4c-3.7-1.6-7-3.8-9.1-7.1c1-1.2,1.5-2.6,1.7-4.3c0.4-3.5-2.8-6.7-3.6-10
				c-0.8-3.5-1.2-6.9-2.7-10.2c-0.2-0.5-0.5-1-0.8-1.5c-0.1-3.1-0.5-6.1-1.1-9.1c-0.5-2.5-1.4-4.9-2.5-7.2c-1-2.1-2.4-3.8-3.5-5.8
				c0.1-0.3,0.1-0.6,0.2-0.9c0.3-2-0.3-4.3-0.5-6.3c-0.1-0.9-0.2-1.8-0.3-2.6c1-2.2,2.1-4.3,3.3-6.4c0.8-1.4,1.6-2.7,2.1-4.2
				c0.5-1.7-0.2-4-0.4-5.7c-0.5-4.2-1.1-8.5-1.8-12.7c-0.3-1.5-0.5-2.7-1.6-3.8c-0.9-1-2.1-1.9-3.2-2.7c0-1.3-0.5-2.5-1.3-3.4
				c-0.8-0.8-1.8-0.6-2.7-0.1c-0.3-0.7-0.7-1.4-1.4-2.3c-1-1.3-2.1-2.4-3.3-3.5c-1.4-1.2-0.9-2.4-1.3-3.9c-0.7-2.9-4.9-1.1-5-4.7
				c0-1.3-0.8-1.6-1.7-1.4c0-0.8,0.1-1.6,0.2-2.5c0.2-1.2,0.3-2.2,0-3.3c-0.3-0.9-1.1-1.7-1.6-2.4c-1.1-1.5-1.9-3.2-2.5-5
				c-0.9-2.5-1-4.7-2.5-7c-1-1.7,0.8-2.8,0.8-4.3c0-0.8-0.1-1.4-0.5-2c0.9-1.1,1.4-2.3,0.7-4c-0.3-0.7-0.6-1.4-1-2.1
				c-1.3-2.7,0.1-1.1,0.4-2.4c0.2-1.1-0.2-1.8-0.9-2.7c0.2-0.3,0.4-0.5,0.7-0.8c1.4-0.1,2.7-0.1,4.1,0c2.1,0.2,4.1,1,6.2,0.9
				c2.2-0.1,3.1-1.8,4-3.5c0.4-0.2,0.9-0.6,1.3-0.9c1.3-1,2.8-1.5,4.1-2.4c2.8-1.9,3.8-5.7,5.1-8.6c2.6-5.6,9.4-8.1,11.2-14.1
				c2.6-0.6,5.3-1,7.7-2.2c4.4-2,8.2-5.1,11.9-8.3c1.8,0.3,3.8,0,5.5-0.7c0.7-0.3,1.2-2,1.4-2.4c0.8-1.8,2-3.4,3.3-4.9
				c2.4,1.2,4.7,2.6,7.1,3.9c3.1,1.6,6.4,2.8,9.7,3.7c5.3,1.4,11,1.8,16.5,1.1c2.5,0.3,4.9,0.7,7.4,0.9c5.7,0.5,11.4-0.1,17.1,0.2
				c3.5,0.2,7.6,2.4,9.2-1.7c1.8-4.4,2-9.7,1.7-14.4c0.3-0.3,0.6-0.6,0.8-0.9c0.3-0.4,0.6-0.8,0.9-1.3c2.1,0.6,4.3,1,6.5,1.1
				c-0.3,0.9-0.4,1.9-0.4,2.9c0,0.2,0.2,0.4,0.4,0.5c3.2,0.7,6.5,0.8,9.8,0.2c0.2,0,0.4-0.3,0.4-0.5c0-0.4,0-0.7,0-1.1
				c1.1-0.1,2.3-0.4,3-1.3c1-1.3,0.8-2.9,0.3-4.3c1-0.7,1.9-1.6,2.5-2.7c0.7-1.2,0-2.4-0.7-3.5c0.4-0.3,0.7-0.7,0.8-0.9
				c0.5-0.6,0.8-1.4,1-2.1c0.1-0.5,0-0.8-0.2-1.2c1.5-0.5,3-0.8,4-2.1c0.6-0.8,0.4-1.7,0.1-2.7c6.4,0.4,13,0,19.3,0
				c0.1,0,0.2,0,0.2-0.1c0.2,0,0.4-0.1,0.5-0.4c0.4-1.9,2.2-8.8-0.3-10.1c-0.1-0.1-0.2-0.2-0.4-0.2c-5.3,0-10.8-0.5-16.1,0.2
				c0-0.6,0.1-1.1,0.5-1.1c0.4,0,1,0,1.3-0.4c0.6-1-0.4-1.6-1.2-1.7c0-0.4-0.1-0.9-0.1-1.3c3.1,0.2,6.2,0,9.3-0.1
				c3.5-0.1,7,0,10.5,0c0.4,0,0.6-0.4,0.5-0.7c0.1-0.1,0.1-0.2,0.2-0.3C859.1,646.7,859.1,646,859.1,645.3z M797.7,667.2
				c-0.4-0.2-0.8-0.9-1.2-1.2c-0.7-0.4-2.1,0.3-2.7,0.5c-1.7,0.5-3.4,1.2-5.2,0.7c-1.1-0.3-2.4,0.6-3.4,0.9c-2.9,1-5.9-0.5-8.9,0.3
				c-2.5,0.7-4.4,2.2-6.9,2.8c-1-3.7-1.1-7.5-1-11.6c1.4,0.1,3,0.1,4.5-0.2c-0.4,3-1.3,5.5,2.4,5.9c1.8,0.2,3.3,0.2,4.8-0.8
				c0.5-0.3,0.8-0.8,1.1-1.3c0.6-0.9,2-1,3.2-1.2c0.1,0.3,0.1,0.6,0.3,0.9c-0.2,0.3,0,0.9,0.5,0.9c3.3,0.2,6.5,0.1,9.8,0
				c2.6-0.1,5.4-0.1,8.1-0.6c-0.2,0.2-0.5,0.5-0.7,0.7c-0.4,0.4-1.8,2.8-2.3,2.7C799.3,666.6,798.5,666.8,797.7,667.2z M723.7,648.4
				c-0.3-0.2-0.6-0.3-0.9-0.3c0.8-0.7,1.5-1.4,2-2.2c0.6,0.1,1.3,0.1,1.9,0.2c-0.3,1.1-0.3,2.4-0.3,3.4c0,0.6,0.9,0.6,1,0.2
				c0.3,0,0.5,0.1,0.8,0.1c0.7,0,1.3,0.1,2,0.3c0,0.5,0,1,0.1,1.5c-0.2-0.1-0.3-0.1-0.5-0.2c-1.4-0.4-2.5-1.3-3.9-1.6
				c-0.5-0.1-1,0.2-1.4-0.4C724.1,649,724.1,648.7,723.7,648.4z M745.4,660c-0.1-0.5-0.3-0.9-0.6-1.2c1.7,0.1,3.4,0.2,5,0.2
				c0.2,0.4,0.5,0.8,0.9,1.1c0.9,0.6,2,1.1,3.2,1.5c-0.1,1.6-0.1,3.3,0,4.9c-1.9-0.6-3.8-1.5-5.7-2.4
				C746.4,663.2,745.7,661.9,745.4,660z"/>
		</g>
		<path d="M1347.5,272.9c-2.5-5.8-6.3-11-8.7-16.9c-3.9-9.6-5.8-21-11.7-29.6c-2.2-3.3-6-1.9-8.9-0.7c-4.5,1.8-8.9,3.9-13.3,6.2
			c-0.3-0.5-0.8-0.8-1.4-1c-2.7-0.7-5.6,1.2-8,2.3c-1.4,0.7-3.8,1.4-5.4,2.7c-1-3.4-1.2-7.3-1.8-10.6c-0.5-2.8-1.3-5.3-3.9-6.7
			c-2.8-1.6-8.3-0.1-11.3,0.2c-2.4,0.2-3.9,1.9-5.2,3.8c-12.5-8.1-27.4-12.1-42.3-10.8c-1.3-1-2.5-2.1-3.7-3.2
			c-1.7-1.5-3.3-3.6-5.3-4.7c0.1-0.4,0.2-0.8,0.3-1.2c2.2-0.7,4.5-1.7,6-2.9c1.5-1.3,1.9-3,2.2-4.8c2.6-2.1,5.2-4.4,6.3-7.2
			c1.6-3.8,1.9-8.4,2.2-12.7c2.1-0.9,3.8-2,3.3-4.9c-0.1-0.7-0.8-1.5-1.2-2.1c0.5-1.2,0.9-2.5,1.4-3.7c0,0,0,0,0,0
			c4-0.6,7.4-3.8,7.7-7.9c0.4-4.8,1.4-11.8-1.5-16.1c1.6-2.4,5.8-5.5,6.5-6.3c0.8-1.1,2-3.2,1-4.6c-1.1-1.7-2.4-2.2-4.4-2.4
			c-1.8-0.2-3.1-2.8-4-5.6c1.5-2.9,2.4-6.1,2.8-9.3c0.9,0.5,1.8,1.1,2.8,1.2c1.3,0.1,2.6,0,3.8-0.6c3.1-1.8,4.2-4.6,4.6-8.1
			c0.8-7.4-3.9-15-9.3-19.6c-2.2-1.9-8-3.4-8-6.8c0-2.6-0.3-4.3-3.1-4.8c-4.3-0.8-9.3-0.6-13.6-0.5c-2.8,0-2.6,3-3.4,4.9
			c-3-1.6-8.3-5.2-11.1-3.8c-2.4,1.2-3.4,3.6-2.4,6.1c-10.8-0.9-21.9-0.7-32.5,1.6c-6.5,1.4-14.5,3.9-19,9.2
			c-6.3,3.1-11.7,8-15.2,14.1c-4.7,8.4-3.4,19.1-5,28.2c-0.3,1.9-0.8,3.7-0.9,5.6c0,2.3,1.1,5,1.3,7.3c0.4,5.5-1.1,11.1-1.3,16.7
			c-0.2,3.4,2.8,3.7,5.5,4.2c1.3,0.3,2.6,0.4,3.9,0.6c0.9,1.5,2.1,2.8,3.5,4c1.2,1,3,1.3,4.9,1.3c1.4,4.3,3.8,8.7,7.5,10.7
			c-0.3,3.2-0.5,6.5-0.6,9.7c-4.1,0.5-7,1.6-9.3,5.5c-2.5,4-4.5,8.6-6.3,13.2c-3,0.7-6,1.8-8.7,3.2c-2.7-2.6-6-3.8-9.6-1.7
			c-1.7,1-2.8,3.1-3.8,4.6c-2,3.2-4.2,6-6.9,8.5c-4.5,4.1-9.7,7.3-14.3,11.2c-2.4,2.1-1.6,4.6-0.1,7c-2.5,1.7-5,3.6-7.5,5.4
			c-1.7,1.2-3.4,2.5-5.1,3.7c-1.4,1-3.1,1.4-4.6,2.2c-1.4,0.8-2.6,2.1-3.6,3.6c-3.9,0.5-7.4,4.4-10.6,6.3c-4.7,2.7-8,6.4-10.2,11.4
			c-2.1,4.6-3.5,10.1-4.2,15.1c-0.3,2.1,0.1,3.9,0.9,5.7c-1.5,4.1-3,8.2-4.5,12.3c-0.9,2.5-1.9,5.1-2.8,7.6
			c-1.1,2.9,1.8,4.7-0.8,7.6c-2.9,3.2-7.1,3.4-8.5,8c-0.5,1.6,0.6,3.5,1.1,4.9c0.8,2.2-2.2,3.9-2.8,5.7c-0.8,2.4-1.7,4.4-3.3,6.5
			c-1.5,1.9-2.8,3.9-4.1,6c-2.3,3.7-4.4,7.6-4,12c0.3,4,2.9,7.7,4.2,11.4c0.7,2.3,0,4.7,0,7c-2.5,1.6-5,3.3-7.6,4.9
			c-4.6,3-9.6,5.7-14,9.1c-1.1,0.7-2.1,1.5-2.9,2.3c-0.2,0.2-0.3,0.4-0.2,0.7c0.4,1.2,1,2.2,1.6,3.4c-4.2-1.9-8.6-3.4-12.9-5
			c-3.8-1.5-8.9-4.4-13-2.6c-3.3,1.4-1.2,7.3-0.3,9.3c2.4,5.6,5.9,10.9,9,16.1c-7.5,4.4-14.8,9.4-22.2,13.9
			c-5.1,3.2-10.3,6.3-15.4,9.5c-4.2,2.6-8.6,5-12.4,8c-3-2.7-10.8,2.7-13.2,4.1c-1.3,0.8-4.7,2.4-5,4.2c-0.4,3.3,1.9,7.4,3.4,10.3
			c0.7,1.3,2.4,4.9,4.5,4.7c3.3-0.3,6.7-2.5,9.5-4.1c2-1.1,4.7-2.7,5.6-5c0.8-2,0.4-3.3-0.2-4.5c2.8-0.8,5.3-3,7.7-4.7
			c5.6-4,11.3-7.7,17-11.5c7.8-5.1,15.6-10,23.5-15c0.6,1.4,1.1,2.7,2.5,3.6c1.7,1.1,4.5-0.7,6-1.3c1.2-0.5,3.4-0.8,3.4-2.5
			c0-0.8-0.7-1.7-1-2.3c-0.3-0.6-0.6-1.1-0.9-1.6c2.8-1.5,5.5-3.3,8.1-5.2c2.1,1.1,3.7,2.6,5.8,3.9c0.9,0.5,2.4,0.1,3.2-0.3
			c6-3,11.7-6.7,17.4-10.3c1.6-1,3.1-2,4.6-2.9c2.3,2.6,4.5,5.4,5.6,8.6c1,2.9-2,6,2.2,6.9c2.4,0.6,4.7,0,4.4,2.9
			c-0.1,0.8,1,2.2,1.7,2.5c1.9,0.9,4,1.1,6.1,1.6c0.2,0,0.4,0.1,0.5,0.2c-0.1,5.3,0.8,10.6,2.6,15.7c0.9,2.7,2.3,5.2,3.8,7.7
			c-0.3,4.8-1.1,9.6-1.6,14.5c-0.8,8-0.7,15.8-0.3,23.7c0.8,13.9-7,27.7-0.8,41.2c1.1,2.3,2,4,4.3,5.3c1.9,1,3.7,1.3,5.4,2.7
			c1.3,1,2.4,2.3,3.6,3.5c3.3,3.4,9.4,6.9,14.3,6.9c5.9,0,9.9-5.7,13.6-9.6c0.7-0.7,1.4-1.5,2.1-2.2c-0.3,6.3-1.2,12.5-3.1,18.8
			c-0.7,2.5-3.2,6-0.9,8.3c0.6,0.6,1.5,1.2,2.4,1.7c-2.3,7.1-5.7,13.8-8,21c-3.2,9.8-1.9,19.8-0.5,29.8c0.8,5.7,1.2,11.4,1,17.2
			c-0.1,4.2-0.2,8.3,1.4,12.3c1.2,3.2,3.7,5.2,6.6,6.8c-0.2,4.5-0.1,9,0.8,13.4c0.9,4,2.7,7.9,4.8,11.5c-2.5,10.4-1.2,21.6,0,32.1
			c0.7,6.1,1.8,11.7,5,17.1c0.7,1.2,1.5,2.4,2.3,3.6c-1.4,9.9-4.1,19.8-3.5,29.9c0.3,5.2,0.4,11.9,4.2,15.9c2.6,2.7,6.4,3.8,9.9,5.4
			c-0.8,9.9,2.1,20.6,8.5,28c3.4,3.9,7.2,1.4,10-1.9c1.1-1.3,2.3-2,3.5-2.4c1.9,4.7,3.8,9.3,5.6,14c0.9,2.3,0.3,3.7,0,5.9
			c-0.1,0.6,0.1,1.3,0.4,1.7c0.6,0.8,1.2,1.5,1.9,2.1c-0.6,5.5-2.3,10.9-1.4,16.5c0.6,4.1,2.6,7.9,3.1,12.1
			c0.5,4.7-2.4,9.2-4.4,13.2c-2.8,5.6-8.6,15.7-7,22.9c-0.2,5.6,0.2,11.5,5,15c5.6,4.1,15.3,2.6,21.6,2.6c6.9,0.1,13.9,0.4,20.3-2.8
			c2.4-1.2,4.3-3.2,5.5-5.6c1.1-2.3,0.5-5.1,0.3-7.7c0.6-2.4,0.7-4.9,0.8-7.2c0.1-3.9-0.6-7.8-1.9-11.4c0.4-1.1,0.7-2.2,1-3.3
			c1.1-4-0.4-7.9-1.2-11.8c-0.9-4.2,0.4-8.5-0.3-12.7c-0.1-0.8-0.4-1.6-0.8-2.3c0.4-2.5,0.8-5,1-7.6c0.1-1.4-0.4-2.9-1-4.1
			c-1.5-3.2-2-5.4-1.2-8.9c1-4.6-2.8-7.1-6.4-9.6c-0.1-4.1,0.1-8.2,0.2-12.4c3.2-0.4,6.5-0.5,9.8-0.5c2.4,0,4.4-0.9,6.1-2.6
			c3.8-3.7,6.4-10.7,5.6-15.9c-0.6-4-2-7.7-3.2-11.6c-0.9-3-1.7-6-3.4-8.7c-1.5-2.3-4.4-3.3-6.7-4.5c-1.6-0.8-3-1.9-4.3-3.2
			c0.7-2.4,1.6-4.8,2.7-7.2c1.7-3.6,2.8-7,2.5-11c-0.4-4.5-1.9-9-2.8-13.4c-1.2-6-1.9-12-2-18.1c-0.1-5.5,0.6-10.9,2-16.2
			c1.2-4.7,2.7-9.2,3-14.1c0.4-5.3-0.8-10.8-1.5-16c-0.3-2.1-0.5-4.3-0.8-6.4c1.4-5,2.6-10,3.1-15.2c0.9-9.5-0.2-19.1,0.2-28.6
			c0.4-9.6,2.2-19.1,2.8-28.6c0.3-4.7,0.1-9.5-0.4-14.2c-0.3-2.4-0.6-4.6-0.8-6.9c0.6,0.5,1.1,1,1.7,1.5c0.2,4,0.5,8,0.4,12
			c-0.1,2.8-0.2,5.2,0.6,7.8c0.9,3.1,2.6,5.9,3.3,9.1c1.3,5.7-0.6,11.6,0.3,17.4c0.6,3.5,2.3,6.8,4.3,9.8c-0.3,3.9-0.5,7.8-0.6,11.7
			c-0.3,6.4-1,13.5,0,19.9c0.5,2.9,4.9,4.5,8.5,5.3c1.1,1.7,2.3,3.3,3.6,4.9c-0.9,2.9-1.3,5.8-0.8,9c0.1,0.4,0.2,0.8,0.3,1.3
			c-1.2,3.9-2.2,7.8-3.1,11.8c-0.7,3.3-1.4,6.4-0.6,9.7c0.3,1.4,1,2.9,1.8,4.3c-1.1,1-2.1,2-2.9,3.3c-2.3,3.4-2.5,8.5-3.2,12.3
			c-0.8,4-2,7.9-0.6,11.9c-7.1,4.9-7.9,16.7-6.7,24.5c0.9,5.6,3.4,10.5,6.2,15.4c2,3.6,4.5,5.3,7.8,6.5c2.4,4.7,4.5,9.4,6.4,14.4
			c0.2,3.1,0.1,6.3-0.1,9.4c-0.4,4.4-1.8,9-1.1,13.4c0.6,4,2.6,7.1,4.8,10.5c2.8,4.3,5.6,8.7,8.4,13c3.5,5.4,8,11.4,14.3,13.6
			c8.1,2.9,13.9-1.4,19.8-6.7c6.1-5.6,5.4-13.4,4.6-20.9c-1-9.3-3.2-18.4-6.2-27.2c-3.1-8.8-7.4-17.1-10.3-26
			c-1.8-5.5-3.2-10.4-2.1-16.1c0.3-1.4,0.7-2.8,1.1-4.2c2.6,0,5.2-0.3,7.8-1.1c4.6-1.4,8.1-5.2,11.7-8.3c2.5-2.2,5.4-3.6,8.5-4.8
			c1.5-0.6,3-1,4.2-2.1c0.7-0.7,0.6-2.1,0.4-2.9c-0.3-1.8-0.5-3.7-0.8-5.5c4.4-3,7.1-8,7.7-13.8c1-9.4,2.4-18.5,4.7-27.5
			c0.6-0.9,1.2-1.8,1.8-2.7c4.8-7.7,5.5-16.5,4.6-25.3c1.8-1.7,3.9-3.2,6.4-4.3c2.8-1.3,5.5-2.3,7.5-4.7c1.9-2.2,1.7-5.5,1.6-8.2
			c-0.3-4.8-0.7-9.7-1.1-14.5c-0.4-4.8-0.8-9.7-1.1-14.5c-0.3-3.9-0.2-8-1.5-11.8c-1-2.8-3.8-5-6-7c-0.3-0.2-0.5-0.5-0.8-0.7
			c0.4-4.9,0.9-9.7-0.8-14.4c-1.2-3.4-3.8-5.8-6.6-8.2c0.3-1.9,0.3-3.9,0-6.2c-1.1-8.1-2.2-16.2-3.4-24.3c-0.5-3.5-0.9-6.9-1.8-10.3
			c-0.8-3.1-2.7-5.9-4.4-8.6c-1.7-2.8-3.3-5.8-4.8-8.7c-0.3-6.9-0.7-13.8-1.1-20.7c-0.3-4-0.7-7-3.3-10.3c-2.4-3-4.5-6.1-6.5-9.3
			c1.2-1.8,2.3-3.9,1.3-5.3c-2.2-3.1-3.9-6.1-5.2-9.5c2.7,0.3,5.4,0.7,8,1.4c3.2,0.8,6.2,1.6,9.5,1.3c4.2-0.3,7.8-3.9,10.9-7.2
			c1.7,0,3.4,0,5-0.3c0.8-0.2,1.9-1.2,2.3-1.8c1.8-2.4,3.6-4.9,5.4-7.4c1.7-2.4,6.7-7.1,6.1-10.4c-0.5-2.4-2.2-3.6-4.4-3.4
			c0.4-1.7,0.6-3.4,0.9-5.1c0.5-3.4-0.4-10.4,2.6-12.7c1-0.8,1.9-1.8,1.7-3.2c-0.4-2.4-1.4-4.9-2.5-7.2c0.8-2.7,1.4-5.6,1.1-8.2
			c-0.2-1.5-1.5-3.1-2.3-4.2c-0.7-1-1.4-2-2-3c3.3-2.7,5.3-6.7,7.7-10.4c4.5-7,9.8-12.1,10-20.9c0.2-7.9-2.4-17.3-5.7-24.4
			c-1.1-2.4-2.6-4.6-4.4-6.7c-0.2-0.8-0.4-1.5-0.8-2.2c-1.1-2.5-2.6-4.8-4.3-6.9c0.4-1.5,0.5-3,0.3-4.7c-0.3-2.9-2.3-4.9-3.3-7.4
			c-1.2-2.9-0.7-6.4-1.7-9.4c-0.7-2-2.4-3.6-3.8-5.2c0.3-0.2,0.6-0.5,0.8-0.8c0.7-1.1,0.1-2.6-0.6-3.8c3.9-0.1,7.8-0.4,11.8-1
			c5.2-0.8,11.2-1.9,15.9-4.5C1349.6,277.8,1348.4,274.9,1347.5,272.9z"/>
		<g>
			<path d="M1061,715.1c-0.7-4.4-2.3-8.7-3.5-13c0-0.1-0.1-0.2-0.2-0.3c1.8-1.7,3.3-3.6,3.4-6.2c0.2-5.5-1.5-11.4-2.7-16.7
				c-1.3-5.6-2.3-11.7-4.4-17.1c-0.4-1-1.1-2-1.9-2.7c0.2-0.7,0.4-1.5,0.5-2.3c0.2-1.8-0.6-3.7-1-5.4c-0.6-2.5-1.2-5-1.8-7.4
				c-1.1-4.3-1.8-8.9-3.4-13c-0.8-1.9-2.4-3-4.2-3.7c-1.6-6.8-7.1-12.7-11.5-17.7c-5.4-6.2-12.1-12-20.1-14.2c0-2.8-0.8-5.4-3.9-6.6
				c-3.3-1.2-7-1-10.5-1.1c0.1-1.6,0.2-3.5-1.3-3.8c-2.5-0.6-2.6-2.9-3.2-5.1c-0.3-1-0.6-1.5-1.6-2c-0.8-0.4-1.9,0.2-2.6,0.5
				c-2,0.9-3.8,2.1-5.7,3.2c-2.4,1.4-4.7,2.9-7,4.5c-0.6-4.3-1.1-8.5-0.9-12.9c0.1-1.7,2.1-2.4,1.9-4.1c-0.1-0.9-0.5-1.6-1-2.3
				c1-2.1-0.2-4.5-2.2-6c-2.2-1.6-4.3-3.1-6.2-5.1c-1.9-2-3.3-4.3-4.8-6.7c-2.1-3.4-4.6-5.9-8.4-7.3c-3.9-1.4-8.3-1.1-12.3-0.5
				c-8.8,1.3-17.3,5.5-23,12.5c-2.5,3.1-4.4,6.7-5.4,10.6c-1.1,4-0.4,8-0.3,12c-1.9,0.6-3.8,1.2-5.7,1.7c0.2-1.9-0.1-3.6-2.3-4.2
				c-1.7-0.4-3.4,0.6-4.3,2c-0.8-0.5-1.7-0.7-2.4-1.4c-1.4-1.2-2.4-2.5-4-3.5c-2.1-1.3-4-1.2-5.1,0.2c-1.7-0.7-3.5-1-5.3-0.4
				c-2,0.7-2.7,4.1-3.1,5.8c-1.2,5.2,2.9,7.3,7.1,7.6c0,0.2,0,0.5-0.1,0.7c-0.9-0.4-2-0.7-3-1c-1.9-0.5-3.6-1-5.4-1.9
				c-1.7-0.8-3.1-2.2-4.8-3c-0.8-0.4-2-0.3-2.9-0.2c-1.3,0.2-2.4,0.4-3.7,0.2c-0.5-0.1-1-0.3-1.5-0.3c-0.8,0-1.7,0.3-2.1,0.9
				c-3.5-0.8-6.9-1.7-10.3-2.7c-4.3-1.2-8.6-2.7-13-3.7c-2.2-2.4-4.3-4.8-6.1-7.6c-1.3-2-2.7-5.6-5.4-5.9c-2.6-0.3-3.7,1.6-4,4
				c-0.6,4.3-0.8,8.7-0.6,13c-4.5-0.2-9-0.7-13.5-1.7c-3.3-0.7-6.7-2.2-10.2-2.8c-0.4-0.5-0.8-0.8-1.4-1.1c-2.8-1.1-5.9-1.7-8.9-2.4
				c-2-0.5-6.2-1.7-8.9-1c0,0,0,0-0.1,0c-4.3,0.9-3.4,6.2,0.2,7.3c1.2,0.4,2.6,0.3,3.8,0.4c1.9,0.2,3.9,0.7,5.8,1.2
				c2.7,0.7,5.3,1.4,8,1.5c7.4,2.8,15.2,4.6,23.1,5.5c0,1.9,0.4,3.6,1.8,5c1.9,1.9,4.6,0.3,6.7,1.1c0.2,0.1,0.4,0,0.5-0.1
				c0.8-0.9,1.4-2.3,2.3-3.1c0,0,0,0,0,0c0,1.6,0.3,3.1,1,4.5c1,1.9,3.5,2.6,5.4,3.2c5.3,1.8,10.8,2.3,16,3.8
				c-0.7,2.1,0.2,3.9,2.3,5.3c1.6,1,3.5,1.3,5.4,1.3c1.2,1.3,3,1.7,4.9,1.9c0.9,3.2,4.5,5.1,7.4,6.4c3.3,1.5,6.9,2.5,10.5,3.2
				c0.2,2,0.4,4,0.9,5.9c0.6,2.4,4.1,3.6,5.9,4.7c0.7,0.4,2,1.5,2.9,1.4c0.9-0.1,1.8-0.4,2.7-0.7c0.6,0.9,1.1,1.7,1.7,2.6
				c1.2,1.9,1.9,4.1,3.2,5.9c0.8,1,1.9,1.7,3.1,2.3c-0.1,0.9-0.2,1.8-0.3,2.7c-0.2,1.6,0.3,2.4,1.1,3.3c-0.3,7.6-1.4,15.1-1.4,22.7
				c0,3.5,0.1,7.6,2.1,10.7c1.9,3.1,5.8,5.5,8.6,7.9c2.2,1.9,4.7,4.5,7.7,4.7c3.2,0.2,5.9-1.4,8.7-2.8c3.3-1.7,6.6-2.1,9.5-4.6
				c2-1.8,4-3.5,6-5.3c0.4,1.1,0.9,2.2,1.3,3.2c-0.8,0.5-1.6,1-2.2,1.6c-0.9,0.9-0.4,1.9,0,2.9c1.6,4.5,3.3,9,4.9,13.5
				c0.8,2.1,1.5,4.2,2.3,6.3c0.4,1,0.8,2.6,2,3c1.9,0.7,4,0.4,6,0.4c1.5,0,3,0,4.5,0c0.1,0.8,0.3,1.4,0.3,1.4
				c0.1,0.9,0.2,1.8,0.4,2.6c0.3,1.9,0.9,3.8,1.9,5.4c0.9,1.4,2.2,2,3.7,2.2c-0.8,5.4-2.2,10.8-4,15.9c-0.9,2.5-2.5,4.9-2.2,7.7
				c0.1,0.6,0.2,1.2,0.4,1.8c-2.1,5-3.9,10.2-5.7,15.3c-1.1,3.1-2.9,6.7-3,10c-0.1,2,0.3,3.9,1,5.8c-0.3,1.9-0.5,3.7-0.7,5.6
				c-0.6,5.2-1.1,10.3-1.5,15.5c-0.3,4.4-1,9.1,0,13.5c0.7,3.1,2.8,5.4,5.2,7.4c0,2.3,0.3,4.5,1.5,6.6c0.8,1.4,2.2,2.3,3.6,3.3
				c-0.3,1.1-0.6,2.2-1,3.3c-0.6,1.9-1.9,4-2,6c-0.2,2.9,2.5,5,4.8,6.4c-0.2,6.9-3,13.6-4.4,20.4c-0.6,3,0.7,4.8,2.9,6.7
				c1.8,1.6,3.8,3.1,5.8,4.6c-0.3,0.7-0.2,1.5-0.1,2.2c0.1,0.5,0.3,0.9,0.6,1.3c-1.4,5.9-3.5,11.7-7.5,16.4c-2.1,2.4-5.1,4-7.8,5.5
				c-3,1.7-6.2,3.2-9.5,4.3c-2.9,1-6,1.5-9.1,1.6c-2.6,0.1-5.2,0.1-7.7,1.2c-3.4,1.4-4.8,4.9-5.4,8.4c-0.6,0-1.2,0.1-1.9,0.3
				c-0.2,0.1-0.3,0.2-0.3,0.4c-0.2,2.3-1.6,4.3-0.8,6.6c0.7,1.9,3.5,3.6,4.9,4.8c4.1,3.5,8.5,6.5,13.4,8.5c4.9,2,10.4,2.8,15.6,2
				c2.5-0.4,4.8-1.5,7.1-2.6c3.9-1.9,7-1.6,11.1-0.9c4.2,0.7,8.1-0.5,11.3-3.2c4.3-3.5,4.2-8.4,5.2-13.4c0.5-2.7,2.6-4.6,3.4-7.1
				c0.8-2.6,0.4-5.1,0.1-7.8c-0.6-5.7,0.7-11.4,2.2-17c2.8-1.2,5.5-2.8,7.7-5c0.4-0.4,0.8-0.9,1-1.4c1.7-0.5,3.4-1.1,4.9-2
				c3.3-2,4.4-5.7,8.8-5.9c1.6-0.1,2.8,1.2,4.3,1.2c1.5,0,2.9-1.2,4-2c2.5-1.6,5.2-3.6,6.9-6c3.4-4.9,0.7-11.6-2.1-16.2
				c-1.5-2.5-3.7-4.5-6.2-6.1c-1.3-0.9-2.4-1.8-3.3-2.9c0.1-0.3,0.2-0.6,0.3-0.9c0.7-2.2,1.8-4.6,1-6.9c-0.5-1.7-3.1-2.9-4.4-3.9
				c-2.1-1.5-4.2-3-6.3-4.5c0-0.5-0.1-1.1-0.1-1.6c-0.5-3.4-3.9-4.8-6.7-6.2c0.5-6.4,1.3-12.7,2.2-19.1c0.7-0.3,1.5-0.6,2.2-0.9
				c1.9-0.7,4.3-1.4,5.5-3.2c1.7-2.3,1.5-5.5,1.6-8.3c0-0.1,0-0.2,0-0.4c1.8-0.9,3.5-1.8,5.2-2.6c2.5-1.2,5-2.4,7.1-4.2
				c3.3-2.9,4.9-7.3,6.4-11.2c4.2-10.9,10.1-20.8,15.9-30.9c1.8-0.3,3.5-0.9,4.5-2.4c0.5-0.8,0.1-1.9-0.2-2.7
				c-0.5-1.3-0.6-2.4,0.7-3.4c0.3-0.2,0.5-0.5,0.7-0.8c0.6-1.4,0.1-3,0.1-4.5C1060.9,719.4,1061.3,717.3,1061,715.1z M921.3,598.8
				c-1.7,0.4-2.2-1.3-3.4-1.8c-0.6-0.2-1.2-0.3-1.7-0.3c0.4-1.1,1.1-2.8,0.9-3.7c-0.3-1-1.1-0.9-2-1c-2.4-0.2-4.8-0.4-7.3-0.6
				c-0.3,0-0.7-0.1-1.2-0.2c0-1.1,0-2.2,0-3.4c1.9-0.6,3.7-0.9,5.7-1.1c0.7,0.5,1.5,0.8,2.3,1.1c2.7,1,5.2,1.8,7.6,3.4
				c0,1,0.1,1.9,0.4,2.8c0.3,0.8,1.3,1.1,2.4,1.3c0.4,1,0.8,2.1,1.3,3.1C924.6,598.5,923,598.4,921.3,598.8z"/>
		</g>
		<g>
			<path d="M535.5,842.2c-1.5-3.9-6.8-3.3-10.1-2.6c-6.3-3.4-13.4-4.9-20.4-6.2c-8.8-1.6-16.2,2.7-24.8,3.6c-0.1,0-0.3,0.1-0.3,0.2
				c-2.3-1.5-4.6-2.8-7.2-3.9c-4.4-1.9-10.8,0.2-15.2,1c-6.8,1.2-12.8,2.6-19.7,1.8c-3.6-0.4-5.1,1.1-6.9,3
				c-3.8-0.6-7.7-1.1-11.5-1.7c-1.5-0.2-2.9-0.3-4.3-0.2c-0.4-2.5-1.1-5-2.1-7.2c-1.5-3.3-4.6-5.2-7.6-7.1c0.1-0.8,0.3-1.5,0.5-2.3
				c1.1-4.3,4.5-7,6.2-10.9c1.2-2.7,0.9-5.8-0.1-8.6c-1.2-3.6,5.3-3,6.7-5c1.5-2.3,1.1-4.5,0.6-7.1c-1.2-5.9,2.8-10.4,6.6-14.3
				c3.1-3.2,6.4-6.8,7.6-11c3.2,1.2,6.6,1.2,10,0.1c0.6-0.2,0.9-0.6,0.9-1.2c0.1-1.2,0.2-2.4,0.2-3.6c5.2,4.1,11.5,5.1,18.4,2
				c6.9-3.1,12.2-8.4,15.4-15c0.9,0.4,1.8,0.7,2.7,0.7c1.5,0,2.4-2.5,2.9-3.5c2.9-5.3,5.8-10.6,7.4-16.4c0.2-0.8-0.4-1.5-1.2-1.6
				c-1.1,0-2.1-0.2-3-0.5c0.2-3.1-0.1-6.2-1.1-9.3c2.3-0.3,3.4-1.6,1.9-5.1c-3.2-7.5-6.2-15.2-9.6-22.6c-2.3-5.2-12.2-3.1-16.5-3.2
				c-3.7-0.1-8.1-0.7-11.8,0c-1.5,0.3-2.6,0.9-3.6,1.7c-1.8-0.5-3.5-1-5.3-1.3c-2.1-0.3-4.3-0.4-6.4-0.2c-0.2-4.8-0.9-9.6-1.9-14.2
				c1.5,1.8,3.1,3.6,4.8,5.3c0.5,0.5,1.3,0.5,1.8,0c3.3-3,2.9-7.8,6.7-10.6c3.5-2.5,8.2-2.7,12.1-4.5c8.4-3.9,8.8-11.5,5.9-19.4
				c-0.1-0.2-0.2-0.4-0.3-0.5c-1.8-4.8-4.2-9.6-6.4-14.1c-3-6-6.9-11.2-11-16.3c-3.9-4.8-7.5-9.8-11-14.9c0.7-3,1.3-6.4,0.2-8.5
				c-1.5-2.8-3.7-5.5-6.1-7.9c2.3-3.6,3.1-7.8,0.6-12.1c-4.1-6.8-15.4-2.9-16.2-12.6c-0.2-3-0.1-5.8-1.9-8.3
				c-1.9-2.6-5.7-2.5-8.5-2.3c-7.2,0.5-13.2,5.1-17.9,10.3c-4.7-6.6-10.8-12.1-17.7-16.9c-4.7-3.2-9.5-6.9-15.3-7.5
				c-4.5-0.5-8.9-0.5-13.4,0c-3.3-1.8-7.2-1.8-10.9-1c-0.3-1.8-0.4-3.7-0.5-5.5c1.9-0.9,3.6-1.8,5.4-2.9c3.2-2,8-5.4,8.7-9.3
				c0.4-2.6-0.3-5.7-0.4-8.3c-0.2-3.5-0.5-6.9-0.7-10.4c-0.5-6.8-0.6-13.9-2.6-20.4c-3.1-10-16.7-15.9-25.9-18.2
				c-12.6-3.1-25-3.1-37.7-1c-1.5-0.9-3-1.9-4.6-2.6c-1.3-0.6-2.7-0.9-4.1-1c-0.2-2.2-0.5-4.2-1.2-6.4c-0.2-0.7-0.9-1-1.5-0.9
				c-2,0.4-15.2,0.9-13.3,5.2c0.8,1.8,1.7,2.4-0.5,3.5c-2,1-4.3,1.5-6.5,2c-2.1,0.5-2.8,2-2.8,3.8c0,0.5,0.4,1,0.9,1.1
				c1.4,0.3,2.9,0.7,4.3,1.1c4.4,1.2,2.1,6.8,1,9.1c-0.9,1.8-2.8,3.6-2.8,5.8c0,2.4,1,3.9,2.1,6c1.6,2.9,2.8,6.1,3.8,9.2
				c-0.3,0.8-0.7,1.5-1.1,2.3c-0.9,1.6-2.4,2.5-1.9,4.4c0.5,1.7,3.5,3.1,4.8,3.9c1.2,0.8,2.4,1.5,3.7,2.1c0.3,3.2,0.7,6.4,1.5,9.5
				c-0.4,1.2-0.7,2.4-1.1,3.6c-0.5,1.6-1.8,4.3-1.4,6.1c0.3,1.1,0.8,1.6,1.9,2c1,0.4,2.1,0.7,3.2,0.9c-0.6,2.2-1,4.8,0.3,6.1
				c0.8,0.8,0.3,2,0.2,2.9c-0.3,2.3,2.4,4.3,0.9,6.9c-2.5,4.4,2.3,9,7.1,11.1c-4.7,1.6-9.3,3.3-13.9,5.3c-0.4-0.3-0.9-0.7-1.4-0.8
				c-1.4-0.4-3.3,0.6-4.6,1c-1.6,0.5-3.5,1.4-3.9,3c-3.3,1-6.9,1.6-10.1,2.8c-1.9-1.4-3.7-2.9-6.3-3.2c-1.6-0.1-3.1-0.1-4.7,0
				c-0.7-1.6-1.6-3.6-3.4-3.3c-3.6,0.6-7.2,1.2-10.8,1.8c-0.3-0.8-0.6-1.5-0.9-2.3c0.4-0.1,0.9-0.2,1.3-0.3c2.1-0.6,4.1-0.7,6.3-0.8
				c1.6,0,2.5-1.4,2.8-2.8c2.3-0.7,4.6-1.4,7-2c2.4-0.7,4.5-0.8,5.1-3.6c0.8-3.9-1.8-9.5-6.1-9.3c-0.6-2.1-1.4-4.4-3-5.5
				c-0.8-0.6-2.7,0-3.5,0.1c-1,0.1-2.1,0.3-3.1,0.5c-0.5-0.7-0.9-1.4-1.2-2.2c-0.2-0.3-0.6-0.5-1-0.4c-3,0.9-6.2,1.7-9.1,3.1
				c-0.7,0.3-0.8,1.2-0.7,1.9c0.2,1.1,0.4,2.2,0.7,3.3c-1.9,0.6-3.7,1.3-5.5,2.1c-0.3,0.1-0.5,0.5-0.5,0.8c0,1.3-0.1,2.4-0.4,3.6
				c-3.6-0.1-7.3-0.2-10.8,0.3c-3.8,0.6-7.7,2.2-11.5,3.8c-3,0.9-6,1.8-8.8,3c-4.3,1.4-6.3,3.4-6,8.2c0.2,4.4,2,10.6,7,11.5
				c0.5,0.1,0.8-0.1,1.1-0.4c1.4-0.1,2.8-0.9,4.3-1.4c2.3-0.9,4.6-1.6,6.9-2.3c-0.2,0.4-0.4,0.8-0.5,1.2c-8.8,3.4-17.6,6.5-26.5,9.3
				c-5.7,1.8-11.4,3.4-17.1,5.2c-1.5,0.5-2.8,1.2-3.7,2.2c-2-1.4-3.8-3.2-6.3-3.9c-4.3-1.1-10.9,2.8-14.8,4.3
				c-4.6,1.8-10.9,3.6-14.6,6.8c-2.5,2.1-1.5,7.4-0.8,10.9c-0.5,0.6-1,1.2-1.4,1.9c-5.4,2.1-10.7,4.2-16.1,6.3
				c-7.6,2.9-15.5,5.4-22.8,8.9c-0.6,0-1.3,0-1.7,0.4c-1,1.2-1.2,2.7-1.1,4.1c0.2,2.7,3,5,5.6,3.6c0.1,0,0.1-0.1,0.2-0.1
				c1.9-0.1,3.7-0.9,5.7-1.7c4-1.6,8-3.2,12-4.7c5.3-2,10.7-3.9,16.1-5.8c1.2,2.3,3.5,4.3,5.6,5.7c-9.6,3.8-19.3,7.3-28.8,11.3
				c-0.7-1.6-3.2-2-4.5-0.9c-0.7,0.7-1.1,1.5-1.5,2.4c-0.1,0.3-0.2,0.6-0.3,0.8c-1.7,0.8-3.5,1.5-5.2,2.3c-2,0.9-4.1,1.7-3.9,4.2
				c0.1,1.5,1.2,4.4,2.7,4.9c1.7,0.6,3.9-0.7,5.6-1.7c1.3,1.4,3.1,2.7,4.8,2.5c1.3-0.2,2.3-1.4,3.1-2.3c0.5-0.5,1-1,1.5-1.5
				c9.9-3.4,19.6-7.7,29.3-11.8c4.5,3,10,4.6,15.5,3.8c1.6-0.2,5.1-0.4,6-2.2c0.4-0.8,1.5-3.6,1.8-3.9c0.3-0.2,0.5-0.3,0.8-0.5
				c0.6,1.2,1.5,2.4,2.2,3.3c-0.6,2.3-0.3,4.9,0.9,7.3c2,3.9,6.6,5,10.8,5c0.1,1.2,0.1,2.4,0.4,3.5c0.6,2.9,2.9,4.1,5.7,4.3
				c2.9,0.2,4-2.2,3.8-4.7c-0.1-1-0.2-2-0.3-3.1c1.1,0.1,2.2,0.2,3.3,0.2c1.5,0,4.2-0.4,5.9,0.1c0.4,3.2,0.2,6.3-0.6,9.7
				c-0.5,2.2-1.9,4.8-1.5,7.2c0.8,3.9,6.7,4.4,9.8,4.1c0.1,0,0.1,0,0.2,0c8,4.9,16.7,8.9,26,10.3c5.9,0.9,11.9,0.1,17.7-0.5
				c10.3,2.6,21,4.1,31.7,3.1c10.4-1,19.4-8,27.6-14.4c2.3-0.4,4.5-1.1,6.6-1.8c0.2,2.2,0.8,4.4,1.5,6.7c2,6.4,4.4,12.7,7.1,18.9
				c1.3,3,6.8,18.5,12.5,15.6c1.3,3.4,2.8,6.7,4.4,9.9c-1.6,0.9-3.2,1.7-4.8,2.6c-4.1,2.1-7.6,2.1-12.1,2.8
				c-0.4,0.1-0.7,0.5-0.9,0.9c-0.4,1.1-0.5,2.3-0.6,3.5c-20.8,7.6-41,18.2-59.9,29.5c-7.8,4.7-10.2,11.8-9,20.6
				c0.5,3.9,1.6,7.3,4.1,10.3c0.7,0.9,1.6,1.7,2.5,2.5c0.8,5.7,1.8,11.4,2.7,17c0.6,3.6,1,7.4,2.6,10.7c1.9,4,4.6,7.6,7.2,11.2
				c4.7,6.3,10.8,11.9,14.6,18.8c2.6,4.8,4.1,9.5,6.7,13.8c2.5,7.4,5.6,14.4,10.1,21c2.7,4,5.7,8.2,10.8,8.6
				c2.6,0.2,5.5-1.5,7.8-2.6c0.6-0.3,1.2-0.6,1.8-0.8c0.2,1.4,0.3,2.9,0,4.3c-0.6,3.8-5,5.9-8,7.8c-6.4,4.1-13.2,7.7-21,7.8
				c-5.5,0-10.6-1.8-15.5,1.7c-2.7,2-4,5.2-4,8.4c-2,1.1-3.5,3.1-3.1,5.6c0.9,5.7,6.8,8.4,12.1,8.9c8,0.8,16.3-0.2,24.3-0.6
				c8.9-0.5,17.7-1.3,26.5-2.3c0.4,1.2,1.4,2,3,2.1c7.1,0.3,14.4-0.8,21.4-1.7c5.6-0.7,12.1-1,17.1-3.5c3-1.5,1.7-5.6,0.4-8.6
				c0.9-7.4,0.5-14.9-3.7-21.3c-2.5-3.9-6.5-6.6-9.1-10.5c-2.3-3.5-3.8-7.6-5.2-11.6c1.9-5.2,3-10.8,1.3-16
				c-1.9-5.7-6.6-9.6-11.1-13.6c0.2-1.5,0.4-3.1,0.3-4.6c-0.1-3.6-4.6-7.5-6.4-10.3c-2.6-3.9-4.1-8.4-6.8-12.2
				c-1.3-1.8-3.3-2.8-5.3-3.9c-0.9-4.2-2.5-8.2-5.1-11.7c11.5,1.4,23.2,1.3,34.7-0.2c0.1,4.9,0.2,9.9,0.6,14.8
				c0.4,4.9,1.6,9.6,3.5,14.2c1.6,3.6,3.7,6.7,4.2,10.7c0.4,3.2-0.5,6.7-0.7,9.9c-0.4,6.1,0.7,12.3,2,18.3c1.3,6,2.6,12.1,5,17.8
				c3.6,8.6,11.8,14.9,20.9,16.4c0.6,0.7,1.2,1.3,1.9,1.9c3.1,2.7,8.7,2,12.5,2.1c11.6,0.2,23.8-0.3,35.1-2.8
				c3.8,1.5,7.9,1.9,12.9,0.9c11-2.3,21.8-6,32.8-8.4c5.7-1.3,11.4-2.1,17.2-2.5c2.9-0.2,7.2,0.5,9.5-1.8c2.6-2.6,3.5-7.4,4.5-10.8
				c0.1-0.4,0.2-0.7,0.3-1.1c0.7,0.1,1.5,0.3,2.2,0.5c-0.3,4.2,0.1,8.7,2.9,11.4c-0.1,2-0.2,3.9-0.3,5.9c-0.3,6.6-4.4,6.1-8.3,9.2
				c-4.4,3.4-3.2,8.3-1.1,12.6c-0.1,1.2,0.7,2.4,1.9,3.3c1.5,1.1,4.8,0.8,6.5,0.8c3.7,0,7.5-0.9,11.1-1.6
				c12.2-2.6,24.5-7.4,29.3-19.9c2.4-6.2,1.5-13.4,1.7-19.9c0.1-3.9,0.7-7.7,4.1-10.1c1.8-1.3,2.1-2.9,2.4-5c0.5-3.6,0.6-7.3,0.9-11
				C535.9,849.1,536.7,845.5,535.5,842.2z M206.2,608.4c0.6-0.2,1-0.8,0.8-1.4c-0.8-3-1.1-6-1.4-9c1.1,0.4,2.4,0.6,3.6,0.8
				c0,1.5,0.1,3.1,0.9,4.2c0.6,0.9,1.4,1.6,2.2,2.4c-0.2,1.8-0.4,3.6,0.3,5.5c0.6,1.6,1.7,2.9,3.1,3.8c0.3,3.2,1.9,6,5.2,7.6
				c2.3,1.1,5.4,0.6,7.9,0.5c2.9-0.1,5.8,0.1,8.7,0.4c-0.1,1.6-0.2,3.3-0.6,4.8c-1.9,0.7-3.7,1.3-5.7,1.8c-1.6,0.4-2.5,1.8-2.9,3.3
				c-2.2-0.1-4-0.4-5.7,0c-0.9-0.9-1.9-1.7-3.1-2.2c-4-1.7-8.6-1.9-13-2.4c0.1-6.6-0.3-13.3-1.6-19.6
				C205.2,608.7,205.6,608.5,206.2,608.4z M261.1,597.4c-0.6-1.8-1.3-3.6-2.4-5c-0.4-0.5-1.6-0.8-2.2-0.8c-3,0.3-5.7,0.5-8.8,0
				c-5.1-0.8-8.6-4-12.9-6.4c-2.1-1.2-4.4-1.4-6.7-1.2c0.1-1.4,0.6-2.4,2.6-3c1-0.3,2.4-0.3,3.3-1c2-1.6,1.2-3.7,0.4-5.9
				c2.1-0.5,5.1-1.4,5.3-3.5c6,0.9,12,1.6,18.1,2c0.9,2.7,1.6,5.1,5.1,5.6c2.1,0.3,4.6-1.2,6.4-2.1c4-2.1,7.2-2.3,11.1-0.6
				c-0.3,1.2-0.9,3.9-2.3,3.8c-0.9-0.1-1.9-0.1-2.8,0.1c-2.4,0.7-3.3,2.8-4.4,4.8C268.2,589.2,264.8,593.4,261.1,597.4z
				 M176.1,598.5c0.4,3.6,0.9,7.3,2.1,10.6c-0.8,0.9-1.2,2.2-0.6,3.2c0.6,0.9,1.5,1.1,2.5,1.2c0.1,0,0.2,0,0.3,0
				c-0.2,3.1-0.1,6.2-0.1,9.3c-2.9-1.3-5.7-2.7-8.9-2.4c-4-3.7-5.2-9.6-7.7-14.7c-0.7-1.5-1.7-3-3-4
				C165.8,600.8,171,599.6,176.1,598.5z"/>
		</g>
		<g>
			<path d="M1015.5,179.7c-0.3-1.2-1.8-1.9-2.7-2.4c-1.2-0.7-2.4-1.3-3.7-1.9c0.5-3.3-1.4-6.5-5.1-7.8c-1.4-0.4-3-0.3-4.4-0.3
				c-2.6,0-5.2,0-7.7,0c-4.4,0-8.7,0.1-13,0.1c-0.9-1.9-1.8-3.8-2.8-5.6c2.4-2.4,4.3-5.2,4.8-8.8c0.3-2.7-1.3-5-2.3-7.5
				c-1.2-3.2-1.4-6.9-2.4-10.2c-1.7-5.4-4.8-10.1-8.2-14.6c-4.7-6-8.7-12.5-12.8-19c-1.7-2.7-3.4-5.4-5.1-8.1
				c-1.5-2.5-2.6-5.1-4.3-7.4c-3.3-4.2-9.4-7.4-14-9.8c-4.8-2.5-10.2-3.5-15.5-2.2c-3.5,0.8-6.6,3.2-9.3,5.8
				c-2.4-0.2-4.7-0.3-7.1-0.7c-1-0.1-2-0.2-2.9,0c-0.1-1.1-0.3-2.3-0.5-3.4c1.9-1.6,3.6-3.6,3.5-6c-0.1-1.8-1.7-3.9-2.5-5.4
				c-1.4-2.6-2.7-5.3-4.1-7.9c-2.2-4.2-4.4-8.5-8.2-11.5c-3.4-2.7-8.2-3.4-12.5-3.8c-9.4-0.9-18.9,2.6-26,8.7
				c-3.5,3-6.4,6.9-8.4,11.2c-2.1,4.5-1,9.5,0.3,14.1c0.5,1.9,1.2,3.7,2.4,5.3c1.3,1.6,3.1,2.5,5.1,3.2c0,0.2,0,0.4,0,0.6
				c0,0.8,0,1.5,0.5,2.2c0.4,0.5,1,0.8,1.6,1.1c-0.4,2.4-0.6,4.9-0.6,7.3c0,1.6,2.4,1.6,4.1,1.5c0.2,0.7,0.3,1.4,0.5,2
				c-3,0.2-5.9,0.3-8.9,0.3c-0.2-2.5-0.7-5.2-3.2-5.9c-2-0.6-4.9,0.3-7,0.5c-2,0.2-4,0.2-6,0.5c-1.2-1.4-2.8-4.2-3.2-4.8
				c-1.6-2.3-3-4.8-4.3-7.2c-0.2-0.3-0.5-0.4-0.9-0.3c-2.1,0.6-4.3,1-6.5,1.3c-0.3,0-0.4,0.3-0.5,0.5c-0.8,2.1-1.8,4.2-2.7,6.4
				c-4.9,0.7-9.7,1.8-14.7,2c-4.2,0.2-2.9,5-2.1,7.9c-6.2,0.7-12.3,1.3-18.5,2.2c-2.5-4.4-7-6.1-11-9.1c-4.1-3-5.9,1-6.1,4.7
				c-1.1-0.5-2.2-0.2-3.3,0.2c-1.8,0.8-3.6,1.5-5.4,2.1c-0.9-0.4-1.6-1-2.4-1.7c-0.3-0.3-0.9-0.8-1.3-0.8c-1-0.1-1.9,0-2.4,0.9
				c-0.8,1.4-0.4,3.8-0.4,5.4c0,2.3,0.2,4.8,1,7c-8.2,0.4-16.4,1.2-24.7,1.4c-2.5,0-15.5-1.7-15.2,2.9c0.1,1.2-0.2,3.3,1.3,3.8
				c1.3,0.4,3.3-0.2,4.7-0.3c2.2-0.2,4.4-0.3,6.7-0.5c8.4-0.6,16.8-1.2,25.1-1.8c0.1,0.8,0.4,1.6,0.9,2.2c0.9,1.1,2.3,1.1,3.6,0.9
				c2,2.8,5.4,3.9,8.8,3.3c0.3,1.1,1,2.1,2.1,2.7c1,0.6,2.2,0.4,3.3-0.1c0.9,1,2,1.6,3.6,1.7c2.1,0.2,4.5-0.7,6.5-2
				c0.8,0.2,1.5,0.4,2.3,0.5c-0.1,4.2,0,8.3,0.4,12.4c0.2,2,1.4,2.7,3.3,2.8c2,0.1,4-0.5,6-0.8c2.5-0.3,5.1-0.5,7.7-0.6
				c4.2-0.2,8.4,0,12.6,0.1c0,0.4,0,0.8,0,1.2c0,2.8-0.6,5.6-0.5,8.4c0,0.7,0.9,1,1.5,1.1c2.8,0.6,6,0.6,8.9,0.8
				c2.3,0.2,6.8,1.4,7.2-2.1c0.4-3.4,0.6-7,0.5-10.6c1.1-0.3,2.2-0.7,3.2-1.2c0.9-0.4,1.7-1,2.5-1.5c1.5-1,3.3-0.4,4.8-0.1
				c1.4,0.3,2.3-0.3,3-1.2c1.7,0.4,3.9,0.5,4.4,2.7c0.2,1,0.4,1.6,0.9,2.4c0.7,1.1,2.3,0.9,3.4,0.7c2.9-0.4,5.8-1.5,8.7-2.4
				c0.5,2.5-2,7.1-2.5,8.8c-0.3,0.9-1.7,4.4-0.4,5.2c1.9,1.2,4.3-0.9,5.9,1.1c1.4,1.7,4,2.3,6,2.6c0.1,0,0.2,0,0.3,0
				c1.3,0.8,2.8,1.3,4.4,1.7c1.8,0.5,3.3,1.4,4.8,2.3c3.6,5.9,7.3,11.7,11,17.4c1.3,2,2.7,5.6,4.9,6.9c1.7,1,4,0.7,5.9,0.4
				c0.5,1.2,1.2,2.4,2,3.3c1.1,1.1,4.1,0.7,5.4,0.7c1.2,0,2.4-0.1,3.6-0.2c0.8,1.6,1.6,3.1,2.7,4.3c0.9,1.1,2.1,1.5,3.5,1.6
				c0.1,1.5,0.4,3,0.9,4.5c0.8,2.7,1.1,5.1,1.2,7.5c-3,3.9-6.2,7.5-10.7,10.2c-3.1,1.9-5.8,4.8-7.5,8.1c-0.7,0.5-1.5,1.1-2.2,1.6
				c-3.3,2.3-6.9,4.1-9.8,6.8c-3.4,3-4.9,7.6-5.7,12.2c-4.1,4.8-8.5,9.4-12.5,14.4c-1.7,2.1-1.5,4.9-1.3,7.4
				c0.1,1.3,0.2,2.6,0.3,3.9c-2.2,3.4-3.1,7.5-4,11.6c-1.5,7.3-3.5,14.4-6.3,21.3c-1.5,3.6-3.2,7.1-5,10.6c-1.2,2.3-4.5,5.9-4.3,8.7
				c0.4,4,3.4,7.6,6.7,10.3c-1.4,3.2-2.8,6.3-4.7,9.3c-3.5,5.4-8.6,8.5-14.9,9.8c-6.4,1.4-13,1.3-19.4,1.9c-3.2,0.3-6.1,2-6.9,5
				c-0.7,0.5-1.3,1.4-1.6,2.4c-1.3,3.6,0.7,4.9,3.3,7.1c6.9,6,14,9.7,23.2,9.9c4.4,0.1,8.9-0.7,13.2-1.5c1.8-0.3,3.9-1.2,5.3,0.8
				c0.2,0.3,0.6,0.6,1,0.8c1.5,0.9,3.8,0.7,5.5,0.8c3.9,0.2,9.1,1.5,12.7-0.4c1.9-1,1.9-3.4,1.7-5.5c3.5-3,2.7-9.8,2.5-14
				c-0.1-2.2-0.2-4.4-0.3-6.6c0-0.7,2.6-1.7,3.2-2.3c0.4-0.4,0.7-1.3,0.7-1.9c0.1-2.2,0-4.1,0.7-5.9c3.1-0.2,6.3-0.9,8.6-2.7
				c3.2-2.6,1.5-8.5,1.4-11.8c-0.1-3.4,2.3-5.5,4.5-7.7c1.7-1.8,3-4,4.2-6.2c0.2-0.4,0.4-0.8,0.6-1.1c1.4,2.4,2.7,4.9,4.9,6.6
				c0.6,0.5,1.4,0.8,2.1,1.1c2.4,1,4.2,2,5.7,4.1c1.7,2.4,2.7,5.4,4,8.1c2.9,5.8,6.8,11.1,11.4,15.7c3.1,3.1,6.8,6.3,11.1,7
				c1.2,1.9,2.9,3.6,2.4,6.2c-1.2,5.9-9.4,6-14,6.2c-3.7,0.2-7.1-1.6-10.7,0.1c-2.5,1.2-4.2,4.1-5.3,6.6c-1.3-0.1-2.6,1.1-3,2.4
				c-1.2,4.1,6,7.4,8.6,8.5c5.8,2.4,12.5,2.3,18.6,1.7c6.5-0.6,13.1-1.8,19.5-2.8c0.5,1.6,1.8,2.7,3.6,2.7c4.5,0,9.1-0.8,13.5-1.3
				c2.2-0.2,7.1,0.1,8.8-1.9c1.5-1.9,1.4-4.2,0.7-6.5c0,0,0,0,0-0.1c1-3.2-1.6-8-3-10.6c-1.9-3.7-4.2-7.3-6.8-10.6
				c1.1-1.4,2-3,1.6-5c-0.9-4.5-4.4-7.1-7-10.7c-2.3-3.2-2.5-7.3-5-10.4c-1.9-2.4-4.3-4.4-6.5-6.5c1.1-2.2,2.5-4,1.5-6.8
				c-0.5-1.3-1.6-2.5-2.4-3.6c-1.7-2.2-3.5-4.3-5.3-6.4c-3.3-3.8-7.1-6.8-11-9.9c-0.7-0.5-1.3-1.1-1.8-1.7c1.9-2.1,3.2-5.1,5.6-6.6
				c3.4-2.1,8.3-2.4,8.8-7.2c0.2-1.6,0.1-3.3,0.4-4.9c0.3-1.8,2-3.2,3.2-4.6c1.9-2.2,2.1-5.3,3.4-7.9c1.3-2.6,4-3.9,6.4-5.5
				c-0.1,0.3-0.1,0.6-0.2,0.8c-0.2,0.9-0.3,2,0.2,2.9c0.4,0.6,1.2,1.1,1.9,1c2.3-0.3,4.5-0.4,6.8-0.1c2.7,0.3,5.4,1,8.1,1.6
				c1.7,0.4,3.9,1.4,5.7,1.2c3.1-0.3,5.7-4.1,8-6c2.1-1.7,4.4-3.2,6.8-4.7c1-0.6,2.5-1.4,3.1-2.5c1.5-2.9,0.4-5.9,0.4-9
				c0-2.8,2.7-3.6,4.1-5.4c1-1.3,1.6-2.6,2.1-4.2c0.3-1.1,0.5-2.2,0.5-3.3c1.5,0.1,3,0.4,4.5,1c0.3,0.1,0.7-0.1,0.9-0.4
				c1.7-3.5,5.4-8.1,3.7-12.1c-0.7-1.6-2.3-2.8-3.5-3.9c-0.9-0.8-1.9-1.7-2.8-2.5c-0.1-0.1-0.3-0.2-0.5-0.4c1.9-0.2,3.5-0.7,3.9-2.2
				c1.2-5.6,2.2-11.2,3.6-16.7c0.7-2.8,1.5-5.6,2.4-8.4C1015.5,183.1,1016.1,181.6,1015.5,179.7z M745.5,103.2
				C745.5,103.2,745.5,103.2,745.5,103.2c0.7,0.6,1.4,1.2,2.1,1.8c0.6,0.5,1.1,0.9,1.7,1.4c0.4,0.4,2.2,1.6,0.9,1.9
				c-1.5,0.4-3.1,0.2-4.6-0.1c0.2-0.8,0.3-1.6,0.3-2.4C745.8,104.9,745.6,104.1,745.5,103.2z"/>
		</g>
		<path d="M651.6,225.4c0-4.5-2.9-9-6-12.4c-3.5-3.9-6.4-7.5-8.9-12c-0.5-0.9-1.1-1.8-1.7-2.6c-0.9-3.8-2.3-7.7-4.6-10.2
			c-1.3-1.4-3.9-1.7-5.7-2c-2.1-0.4-3.9-1.3-5.5-2.4c-0.2-4.1-1-7.9-4.3-10.9c-2.3-2.2-5.2-3.9-8.2-5.4c-2.1-4-4.5-7.7-8.1-10.7
			c-5.3-4.3-11.9-6.4-18.5-7.8c-0.6-0.5-1.2-1.1-1.8-1.6c-0.7-0.6-1.3-1.1-2.1-1.5c-1.9-3.7-2.6-7.7-4.4-11.4
			c-1.4-3-6.9-3.2-9.5-3.7c-1.2-0.2-2.1-0.1-3.3,0.1c-2.2,0.3-2.2,3.1-5,2.7c-2-0.3-3.8,0.6-5.3,1.8c-1.3-1.3-2.8-2.5-4.3-3.4
			c1.9-3.9,3.3-8.2,2.3-12.1c0.6-1.6,0.9-3.4,0.9-5.2c4,1.3,8.1,1.6,12.2-0.3c0.4-0.2,0.5-0.7,0.5-1.1c-1.5-6.7-2-13.4-3.1-20.2
			c-0.5-2.8-2.4-4.2-4.4-6.1c-0.5-0.5-1.1-1-1.6-1.5c-1-7.3-2.7-15.3-9.1-19.7c-8.1-5.6-18.9-6.9-28.4-5.8
			c-9.3,1.1-17.5,5.8-23.2,13.2c-2.6,3.3-4.2,7.2-5.1,11.3c-0.7,3-0.2,6.3-0.1,9.5c-1.4,2-2.7,4.1-3.6,6.2c-0.7,1.7,0.7,5.4,0.8,6.9
			c0.3,3.4-0.5,7-0.9,10.3c-0.9,7.2,5.4,5.5,10.2,2.3c0.1,0.3,0.2,0.6,0.2,0.9c0.5,2.2,1.5,4.2,2.7,6c-0.2,2.4-0.3,4.6,1,6.9
			c0.8,1.5,2.2,2.7,3.7,3.9c0,0.4,0,0.7,0,1.1c-1,0.7-2.1,1.3-3.2,1.9c-1.8,0.9-3.7,1.6-5.1,3.1c-0.7,0.7-1,1.7-1,2.7
			c-1.8-0.4-3.6-0.9-5.5-1.3c-1.5-0.4-2.4,0.6-3.1,1.7c-1.8,3-3.3,6.2-4.5,9.5c-5.5,2.6-11.1,5.3-16.5,8.1c-1.7,0.9-2.7,2.4-3.7,3.9
			c-1.2,1.7-2.5,3.2-3.9,4.8c-3.6,1-7.3,2.2-10.8,3.3c-4.7,1.6-3.2,7-5.1,10.5c-2.7,4.8-7.1,7.4-8.9,12.8c-0.6,1.7-0.8,3.5-0.9,5.3
			c-3.4,3-3.9,7.8-3.3,12.4c-3.7,3.6-7.4,9-6.3,14.1c1,4.6-3.5,6.6-5.3,10.3c-1.4,3-1.2,6.8-1.5,10c-0.5,6.7-7.6,10.1-1.4,15.8
			c3.2,2.9,4.6,9.4,6.4,13.3c1.6,3.3,3.4,6.6,5.2,9.8c-2.1,1.2-4.1,2.4-6.1,3.8c-0.8,0.5-1.2,1.3-1.5,2.2c-2.6-2.1-5.7-3.6-8.7-5.1
			c-2-1-5.5-2.9-7.6-0.9c-2.3,2.3-0.4,5.2,0.8,7.4c1.8,3.2,3.6,6.3,5.5,9.4c-11,5.9-22.2,11.7-32.5,18.7c-1.1-1.3-2.6-2.3-4-2.9
			c-1.4-0.6-3.6,1.1-4.8,1.7c-1.9,0.9-5,1.9-6.2,3.9c-0.8,1.3-0.4,3,0.1,4.5c-0.9,0.4-1.7,0.8-2.4,1.4c-1.3,1-0.6,2.6,0.1,3.7
			c0.6,0.9,1.3,2.8,2.7,2.8c0.8,0,1.5-0.6,2.2-1c0.3-0.2,0.7-0.4,1.1-0.6c2.9,2,5.2,2.7,8.9,0.8c1.4-0.7,4.9-2.2,5.7-3.6
			c0.6-1,0.4-2.7-0.1-4.1c7-2.6,13.8-6.6,20.3-10.1c7.5-3.9,14.9-8.1,22.2-12.3c2.4,3.9,5.4,8.3,10.3,7.4c3.7-0.6,7.6-2.9,8.6-6.3
			c0.2,0,0.3,0,0.5,0c1.2-0.2,2.5-1.1,3.5-1.7c-0.2,0.6-0.5,1.3-0.7,1.9c-0.8,1.8-2.5,3.4-2.9,5.3c-0.6,2.9,0.2,4.7,2.6,6.4
			c1.7,1.2,3.8,1.3,6,0.8c-2.3,1.8-4.4,3.3-4.8,3.7c-2.3,2-1.6,4.6-0.2,6.7c-3,3.3-5.5,7.4-3.9,11.1c1.4,3.2,4.1,5.3,6.1,8.1
			c2.4,3.6,2,7.9,5.4,11c2.3,2.2,6.1,1.3,8.9,0.9c3.8-0.5,7.5-0.7,10.8-2.8c1.4-0.9,2.6-2.1,3.5-3.5c0.6,2,1.4,3.9,2.3,5.7
			c-0.4,1.6-0.9,3.2-1.7,4.8c-0.8,1.6-2.2,3.4-2.3,5.3c-0.1,1.5,0,3,0.1,4.5c-5.5,4.3-11.9,12-5.2,17c3.5,2.7,3.9,5.1,5,9.1
			c0.6,2,1.9,3.8,3.2,5.4c2.8,3.4,7.2,5.4,11.3,7c0.6,0.9,1.2,1.8,1.8,2.6c0.9,1.4,1.9,2.8,2.9,4.1c0.1,1.1,0.2,2.1,0.4,3.2
			c0.4,3,1.6,5.6,2.8,8.2c-0.7,2.9-1.7,5.7-1.4,8.7c0.2,1.8,1.1,3.5,2.2,5c-2.5,6.9-4.4,14.5-1.2,20.8c-0.9,3.2-1.3,6.5-1.2,9.8
			c0.3,5.2,2.3,10.4,5,14.9c-0.1,1.7-0.2,3.5-0.2,5.2c0,3,0.5,6,1.3,8.9c1,3.8,3.4,6.6,2,10.8c-2.4,7.1-0.3,17.6,8.5,17.7
			c1.2,3.7,2.8,7.3,2.2,10.8c-0.7,3.7,2.2,5.6,3.8,8.3c0,2.1-0.2,4.1-0.7,6.2c-0.6,2.6-2.6,4.6-3.4,7.3c-0.9,3.2-5.2,3.2-7.8,3.8
			c-2.2,0.5-4.3,1.3-6.4,2.2c-6,2.6-10.2,9.2-8.2,15.4c-0.9,0.9-1.2,2.1-0.6,3.4c1.8,3.6,6.5,3.3,10,3.7c12,1.3,22.9-0.6,33.9-4.5
			c3,0.1,5.9,0,8.9-0.5c2-0.4,5.6-0.4,7.2-1.9c1.1-1,1.8-1.9,1.4-3.6c-0.7-3.4,0.9-6.5,0.9-9.9c0-2-1.5-3.7-2.6-5.2
			c-2.4-3.1-1.8-7.5-1.4-11.1c0.3-2.7-1.1-4.7-3.1-6.4c-0.4-2.6-0.7-5.2-1.1-7.8c-0.4-2.5-0.7-5-1.2-7.4c-0.4-2.1-1.1-4-1.7-6
			c1.8-1.6,4-3,5.4-5.2c1.9-3.1,2.6-6.4,2.8-10c0.3-8.9-2.3-18.4-3.9-27.2c0.5-5.7,0.9-11.4,1.4-17c0.7-7.6-1.6-14.4-4.7-21
			c0.5-2.8,0.8-5.6,0.7-8.4c-0.1-6.3-2.7-12.2-2.9-18.4c0,0.1,0.1,0.2,0.1,0.3c1,1.8,2.1,3.1,3.7,4.4c1.1,1,2,2.1,2.6,3.3
			c-0.4,4.6,0.1,9.1,2.1,14c2.5,6.3,3.4,14.6,8.1,19.7c3.8,4.1,11.1,4.1,15.8,1.8c4-2,6.1-6,7.4-10.3c6.2-1.6,13-7.5,16.9-10.6
			c6.2-4.9,7.1-11.4,6.2-18.5c2.7-1.3,4.9-3.7,6.1-6.7c1.5-3.7,2.3-7.7,4.1-11.2c1.5-2.8,3.7-4.9,4.1-8.3c0.9-8.3-4.8-15.9-2.6-24.2
			c1-3.8,0.1-6-2.3-7.7c0.4-14.2-0.6-28.5-3.2-42.4c3.4-3.4,6-7.3,3.9-12.5c-0.6-1.6-1.8-3.1-2.9-4.5c-1.7-2.3-2.8-4.8-3.8-7.5
			c-0.6-1.5-1.3-2.9-2.2-4.3c4.1-0.8,8.2-2,12.2-3.3c2.2-0.7,12.7-3.1,12.4-7c-0.1-1.1-0.1-2.2-1.3-2.9c-3.2-1.8-5.4-3.7-7.8-6.4
			c-4.5-4.9-9.7-9.4-15.1-13.2c0.5-0.6,1.1-1.1,1.7-1.7c5.1,1.6,9.3,4.8,15.2,2.9c4.4-1.4,8.8,1.3,13.4,0.9c3.3-0.3,6.4-2,9.1-3.9
			c5.6-4.1,9.7-11,13.1-16.9c1.9-3.3,2.8-6.6,2.8-9.7C657,235.9,654.9,230.4,651.6,225.4z"/>
	</g>
</g>
</svg>
